<svg width="32" height="32" viewBox="0 0 32 32" fill="none" xmlns="http://www.w3.org/2000/svg">
<path d="M10.5922 7.41888C7.25353 9.30736 5 12.8905 5 17C5 23.0752 9.92487 28 16 28C22.0751 28 27 23.0752 27 17C27 11.4582 22.9018 6.87353 17.5707 6.11133" stroke="#F4F4F6" stroke-width="2" stroke-linecap="round"/>
<path d="M19 5.77771V6.77771C19.3789 6.77771 19.7253 6.56356 19.8946 6.2246C20.0639 5.88564 20.0271 5.48009 19.7996 5.17714L19 5.77771ZM15.4432 12.8885L15.443 13.8885C15.8219 13.8886 16.1684 13.6745 16.3378 13.3355C16.5071 12.9965 16.4704 12.5909 16.2428 12.288L15.4432 12.8885ZM18.999 6.77771C18.9977 6.77771 18.9967 6.77771 18.9971 6.77771C18.9971 6.77771 18.9975 6.77771 18.998 6.77771C18.9984 6.77771 18.9991 6.77771 19 6.77771V4.77771C19.0012 4.77771 19.0022 4.77771 19.0018 4.77771C19.0018 4.77771 19.0014 4.77771 19.001 4.77771C19.0005 4.77771 18.9998 4.77771 18.999 4.77771V6.77771ZM15.5547 10.222C15.5547 8.31976 17.0967 6.77771 18.999 6.77771V4.77771C15.9922 4.77771 13.5547 7.21519 13.5547 10.222H15.5547ZM16.2428 12.288C15.8105 11.7124 15.5547 10.9985 15.5547 10.222H13.5547C13.5547 11.4464 13.9601 12.5791 14.6436 13.4891L16.2428 12.288ZM15.4434 11.8885C13.5416 11.8881 12 10.3462 12 8.44426H10C10 11.4506 12.4368 13.8878 15.443 13.8885L15.4434 11.8885ZM12 8.44426C12 6.54205 13.542 5 15.4443 5V3C12.4375 3 10 5.43748 10 8.44426H12ZM15.4443 5C16.5705 5 17.5704 5.53945 18.2004 6.37829L19.7996 5.17714C18.808 3.85703 17.2261 3 15.4443 3V5Z" fill="#F4F4F6"/>
<path d="M19 16C19 16 20 15 21.5 15C23 15 24 16 24 16" stroke="#F4F4F6" stroke-width="2" stroke-linecap="round" stroke-linejoin="round"/>
<path d="M9 16C9 16 10 15 11.5 15C13 15 14 16 14 16" stroke="#F4F4F6" stroke-width="2" stroke-linecap="round" stroke-linejoin="round"/>
<path d="M19 22C19 22 18 23 16.5 23C15 23 14 22 14 22" stroke="#F4F4F6" stroke-width="2" stroke-linecap="round" stroke-linejoin="round"/>
<rect x="27" y="14" width="3.6" height="6" rx="1.8" stroke="#F4F4F6" stroke-width="2"/>
<rect x="1.39844" y="14" width="3.6" height="5.4" rx="1.8" stroke="#F4F4F6" stroke-width="2"/>
</svg>
