<svg width="32" height="32" viewBox="0 0 32 32" fill="none" xmlns="http://www.w3.org/2000/svg">
<path d="M6.55813 13.6228L10.1238 18.1942M14.7638 7.1771L18.3524 11.7485M3.73756 15.84L18.5216 4.24224C19.2301 3.68648 20.0412 3.27573 20.9084 3.03342C21.7757 2.79112 22.6822 2.72201 23.5762 2.83005C24.4702 2.93808 25.3342 3.22114 26.1188 3.66307C26.9034 4.10499 27.5932 4.69713 28.149 5.40567L30.3776 8.24681C30.5628 8.48304 30.6996 8.75343 30.7803 9.04255C30.861 9.33167 30.884 9.63386 30.8479 9.93186C30.8119 10.2299 30.7174 10.5178 30.57 10.7793C30.4227 11.0408 30.2252 11.2708 29.989 11.456L8.01185 28.6948C7.77562 28.88 7.50523 29.0169 7.2161 29.0976C6.92698 29.1783 6.62479 29.2013 6.3268 29.1652C6.0288 29.1291 5.74082 29.0347 5.47932 28.8873C5.21781 28.7399 4.9879 28.5425 4.8027 28.3062L2.57413 25.4651C2.0185 24.7564 1.6079 23.9452 1.36578 23.0779C1.12366 22.2105 1.05475 21.3039 1.163 20.4099C1.27125 19.5159 1.55453 18.652 1.99667 17.8675C2.4388 17.083 3.03114 16.3933 3.73985 15.8377L3.73756 15.84Z" stroke="#F4F4F6" stroke-width="2" stroke-linecap="round" stroke-linejoin="round"/>
</svg>
