<svg width="32" height="32" viewBox="0 0 32 32" fill="none" xmlns="http://www.w3.org/2000/svg">
<path d="M24.6252 22.4399L25.1452 26.6532C25.2785 27.7598 24.0918 28.5331 23.1452 27.9598L17.5585 24.6398C16.9452 24.6398 16.3452 24.5999 15.7585 24.5199C16.7452 23.3599 17.3318 21.8931 17.3318 20.3065C17.3318 16.5198 14.0518 13.4532 9.99849 13.4532C8.45183 13.4532 7.02517 13.8932 5.8385 14.6665C5.7985 14.3332 5.78516 13.9998 5.78516 13.6532C5.78516 7.58649 11.0518 2.6665 17.5585 2.6665C24.0652 2.6665 29.3318 7.58649 29.3318 13.6532C29.3318 17.2532 27.4785 20.4399 24.6252 22.4399Z" stroke="#F4F4F6" stroke-width="2" stroke-linecap="round" stroke-linejoin="round"/>
<path d="M17.3346 20.3066C17.3346 21.8933 16.748 23.36 15.7613 24.52C14.4413 26.12 12.348 27.1466 10.0013 27.1466L6.5213 29.2133C5.93463 29.5733 5.18796 29.08 5.26796 28.4L5.6013 25.7734C3.81463 24.5334 2.66797 22.5466 2.66797 20.3066C2.66797 17.96 3.92131 15.8933 5.84131 14.6667C7.02798 13.8933 8.45464 13.4534 10.0013 13.4534C14.0546 13.4534 17.3346 16.52 17.3346 20.3066Z" stroke="#F4F4F6" stroke-width="2" stroke-linecap="round" stroke-linejoin="round"/>
</svg>
