<svg width="193" height="51" viewBox="0 0 193 51" fill="none" xmlns="http://www.w3.org/2000/svg">
<g clip-path="url(#clip0_363_830)">
<path d="M45.0408 26.0722C46.6344 26.3737 48.4825 27.1962 49.923 27.8836C50.2157 28.0231 50.4883 28.1619 50.7453 28.2985C50.8455 27.3791 50.9009 26.4462 50.9009 25.5C50.9009 11.4168 39.5063 0 25.4504 0C11.3945 0 0 11.4168 0 25.5C0 39.5832 11.3945 51 25.4504 51C35.2803 51 43.8025 45.4127 48.0421 37.2382C47.0978 36.7586 45.8445 36.4228 45.4243 36.3503C40.232 35.46 37.6161 40.5636 33.1315 40.8061C29.2741 41.016 23.3079 38.6376 20.0701 36.925C17.1999 35.4043 14.7077 33.7277 11.5939 32.6327C10.7984 32.3526 8.9635 31.9216 9.00133 31.053C9.60841 30.475 11.1101 30.4408 12.0721 30.5521C13.1616 30.6797 14.068 30.9182 15.0751 31.2415C16.8918 31.8247 18.8302 32.4261 20.6831 33.0581C21.6056 33.3741 22.5482 33.7027 23.5299 33.9557C25.0151 34.3416 32.7033 34.1818 33.0312 32.6578C31.5174 32.1948 24.0801 32.4386 21.749 30.475C20.8387 29.7066 20.8801 28.9886 22.3383 28.8521C23.5121 28.7424 24.46 28.9599 25.5653 28.9849C27.6721 29.035 29.7615 28.7856 31.7627 28.4659C32.7444 28.3098 33.685 28.1592 34.6687 27.9634C35.5931 27.7786 36.5805 27.5146 37.455 27.3693C39.1944 27.0803 42.0326 27.3532 43.6451 27.7407C45.2218 28.1213 47.0868 28.8647 48.5273 29.5521C49.2683 29.9051 49.9071 30.2585 50.3966 30.5676C50.4467 30.3185 50.488 30.0661 50.5308 29.8144C50.0376 29.5142 49.4503 29.1968 48.8067 28.8901C47.9813 28.4963 45.8403 27.5267 43.796 27.0332C42.5059 26.7232 40.6987 26.523 39.1912 26.523C38.4827 26.523 37.8612 26.5665 37.3442 26.6524C36.8095 26.7413 36.2343 26.8728 35.6782 27C35.6347 27.01 35.5901 27.0199 35.5462 27.0299L35.5487 26.3894C35.5487 26.3894 38.0024 24.7408 45.0408 26.0722ZM30.8955 33.0743C30.3383 33.4008 27.3712 33.5178 26.5237 33.4674L26.522 32.6505L30.8955 33.0743ZM12.1453 29.8308C11.8341 29.7948 11.4988 29.7758 11.1749 29.7758C10.9753 29.7758 10.7588 29.7838 10.537 29.8024C10.444 29.6753 10.3904 29.537 10.397 29.3846C11.0041 28.8066 12.5058 28.7723 13.4678 28.8837C14.014 28.9476 14.5142 29.0396 15.0042 29.156C15.0038 29.5264 15.0044 29.8967 15.0019 30.267C15.0014 30.3362 15.0034 30.4005 15.0063 30.4632C14.1821 30.2063 13.263 29.9616 12.1453 29.8308ZM24.0262 28.2165C23.2237 28.2363 19.7619 27.9364 20.6489 30.0654C21.1182 31.1947 22.6751 31.7565 24.0511 32.1282L24.0351 33.419C23.1734 33.3221 18.3198 31.6221 17.0405 31.2234C16.752 31.1337 16.4797 31.0369 16.1643 30.94C15.7003 30.798 15.6592 30.8896 15.6628 30.3383C15.668 29.5665 15.6664 28.7945 15.6664 28.0227C15.6664 26.5847 15.5927 23.4624 15.6769 22.0139L24.0511 22.0247L24.0262 28.2165ZM24.0511 19.4316H14.1954C13.601 19.4316 13.1192 18.9488 13.1192 18.3532V14.7542C13.1192 14.1586 13.601 13.6758 14.1954 13.6758H24.0511V19.4316ZM34.891 27.2668C33.8948 27.6458 27.7547 28.4482 26.5184 28.344L26.5365 22.0119L34.9051 22.0337L34.891 27.2668ZM37.4459 18.3532C37.4459 18.9488 36.9641 19.4316 36.3697 19.4316H26.514V13.6758H36.3697C36.9641 13.6758 37.4459 14.1586 37.4459 14.7542V18.3532Z" fill="#F4F4F6"/>
<path d="M66.2892 12.8514C65.5681 12.4765 64.7092 12.2891 63.7121 12.2891H56.9648V25.6769H60.0377V21.3214H63.7121C64.7092 21.3214 65.5681 21.134 66.2892 20.7592C67.0099 20.3842 67.5626 19.8577 67.9475 19.1793C68.332 18.501 68.5247 17.7098 68.5247 16.8053C68.5247 15.901 68.332 15.1094 67.9475 14.4311C67.5626 13.7528 67.0099 13.2262 66.2892 12.8514ZM64.9315 18.1173C64.5954 18.4328 64.1349 18.5903 63.5496 18.5903H60.0377V15.0202H63.5496C64.1349 15.0202 64.5954 15.178 64.9315 15.4933C65.2673 15.8087 65.4355 16.2461 65.4355 16.8053C65.4355 17.3647 65.2673 17.8021 64.9315 18.1173Z" fill="#F4F4F6"/>
<path d="M77.9246 15.5029L75.0631 22.806L72.2503 15.5029H68.9336L72.9495 24.8744H74.2527L74.2177 24.9637C73.99 25.5349 73.7056 25.9276 73.3641 26.1419C73.0227 26.3561 72.6243 26.4631 72.1691 26.4631C71.6595 26.4631 71.1908 26.3887 70.7627 26.2401C70.3344 26.0912 69.8767 25.8443 69.3889 25.4992V27.8376C69.8657 28.1946 70.3563 28.4624 70.8603 28.641C71.3643 28.8195 71.9415 28.9087 72.5918 28.9087C73.1228 28.9087 73.6349 28.8164 74.1282 28.632C74.6213 28.4474 75.0794 28.1411 75.5021 27.7128C75.9248 27.2843 76.2878 26.7131 76.5914 25.9991L81.1275 15.5029H77.9246Z" fill="#F4F4F6"/>
<path d="M87.6979 22.0261L89.6768 25.6777H93.1073L89.6203 19.5908L92.8471 15.5029H89.6117L85.1406 21.5309V15.5029H82.1328V25.6777H84.8155L87.6979 22.0261Z" fill="#F4F4F6"/>
<path d="M105.35 25.6777V15.5029H101.464L96.9279 22.6088V15.5029H93.9688V25.6777H97.7408L102.374 18.419V25.6777H105.35Z" fill="#F4F4F6"/>
<path d="M125.739 25.6775V15.5027H121.203L118.574 22.6966L115.903 15.5027H111.383V25.6775H114.212V18.1788L117.155 25.6775H119.951L122.91 18.1071V25.6775H125.739Z" fill="#F4F4F6"/>
<path d="M139.053 25.6777V15.5029H135.167L130.631 22.6088V15.5029H127.672V25.6777H131.444L136.078 18.419V25.6777H139.053Z" fill="#F4F4F6"/>
<path d="M145.511 18.6893C145.498 18.4652 145.483 18.228 145.466 17.9841H149.38V25.6777H152.388V15.5029H142.568C142.654 16.3717 142.719 17.1661 142.763 17.886C142.806 18.6062 142.828 19.2516 142.828 19.8228C142.828 21.0486 142.711 21.9264 142.478 22.4557C142.245 22.9853 141.858 23.2501 141.316 23.2501C141.164 23.2501 140.993 23.2294 140.804 23.1876C140.614 23.146 140.422 23.0835 140.227 23.0002V25.3743C140.519 25.5648 140.823 25.6984 141.137 25.7759C141.451 25.8531 141.776 25.8919 142.113 25.8919C143.326 25.8919 144.204 25.4487 144.747 24.5621C145.288 23.6756 145.559 22.2505 145.559 20.2868C145.559 19.8111 145.543 19.2783 145.511 18.6893Z" fill="#F4F4F6"/>
<path d="M156.663 25.2845C157.541 25.7365 158.565 25.9628 159.736 25.9628C160.906 25.9628 161.933 25.7365 162.817 25.2845C163.7 24.8323 164.386 24.2045 164.873 23.4013C165.361 22.5979 165.605 21.6608 165.605 20.5897C165.605 19.5187 165.361 18.5815 164.873 17.7783C164.386 16.975 163.7 16.3474 162.817 15.8951C161.933 15.4429 160.906 15.2168 159.736 15.2168C158.576 15.2168 157.554 15.4429 156.671 15.8951C155.788 16.3474 155.102 16.975 154.614 17.7783C154.127 18.5816 153.883 19.5187 153.883 20.5897C153.883 21.649 154.127 22.5832 154.614 23.3923C155.102 24.2017 155.785 24.8323 156.663 25.2845ZM157.265 19.0546C157.492 18.6262 157.817 18.296 158.24 18.0639C158.663 17.8319 159.161 17.7158 159.736 17.7158C160.332 17.7158 160.839 17.8319 161.256 18.0639C161.673 18.296 161.993 18.6262 162.215 19.0546C162.437 19.483 162.549 19.9948 162.549 20.5897C162.549 21.185 162.437 21.6964 162.215 22.1249C161.993 22.5533 161.673 22.8836 161.256 23.1156C160.839 23.3476 160.332 23.4636 159.736 23.4636C159.161 23.4636 158.663 23.3476 158.24 23.1156C157.817 22.8836 157.492 22.5533 157.265 22.1249C157.037 21.6964 156.923 21.185 156.923 20.5897C156.923 19.9948 157.037 19.483 157.265 19.0546Z" fill="#F4F4F6"/>
<path d="M170.929 18.055C171.324 17.8291 171.788 17.7158 172.319 17.7158C172.991 17.7158 173.562 17.8885 174.034 18.2335C174.505 18.5788 174.801 19.0786 174.92 19.7329H177.928C177.841 18.8286 177.54 18.0402 177.026 17.3677C176.511 16.6956 175.849 16.1689 175.042 15.788C174.234 15.4073 173.327 15.2168 172.319 15.2168C171.202 15.2168 170.216 15.4429 169.36 15.8951C168.503 16.3474 167.837 16.9781 167.36 17.7872C166.883 18.5966 166.645 19.5307 166.645 20.5897C166.645 21.649 166.883 22.5832 167.36 23.3923C167.837 24.2017 168.503 24.8323 169.36 25.2845C170.216 25.7365 171.202 25.9628 172.319 25.9628C173.327 25.9628 174.234 25.7722 175.042 25.3915C175.849 25.0108 176.511 24.4811 177.026 23.8028C177.54 23.1246 177.841 22.3391 177.928 21.4466H174.92C174.801 22.0655 174.508 22.5564 174.042 22.9193C173.576 23.2824 173.002 23.4636 172.319 23.4636C171.788 23.4636 171.324 23.3507 170.929 23.1246C170.533 22.8987 170.227 22.5711 170.01 22.1428C169.793 21.7144 169.685 21.1967 169.685 20.5897C169.685 19.9829 169.793 19.4652 170.01 19.0367C170.227 18.6084 170.533 18.2812 170.929 18.055Z" fill="#F4F4F6"/>
<path d="M178.27 18.0197H181.863V25.6775H184.887V18.0197H188.496V15.5027H178.27V18.0197Z" fill="#F4F4F6"/>
<path d="M191.211 14.4315C191.753 14.4315 192.186 14.2798 192.512 13.9764C192.837 13.6729 192.999 13.2713 192.999 12.7715C192.999 12.2599 192.837 11.8553 192.512 11.5576C192.186 11.2604 191.753 11.1113 191.211 11.1113C190.68 11.1113 190.246 11.2604 189.91 11.5576C189.574 11.8553 189.406 12.2599 189.406 12.7715C189.406 13.2713 189.574 13.6729 189.91 13.9764C190.246 14.2798 190.68 14.4315 191.211 14.4315Z" fill="#F4F4F6"/>
<path d="M189.699 15.3594V25.677H192.707V15.3594L191.195 15.6985L189.699 15.3594Z" fill="#F4F4F6"/>
<path d="M60.2058 34.7904C59.8536 34.523 59.3253 34.3892 58.6209 34.3892H57.3925V32.083H60.407V31.6797H56.9648V37.8213H58.7174C59.3658 37.8213 59.8641 37.6686 60.2121 37.3634C60.56 37.0582 60.734 36.6227 60.734 36.0569C60.734 35.48 60.5579 35.0578 60.2058 34.7904ZM59.8703 37.1093C59.6048 37.3319 59.1967 37.4432 58.6461 37.4432H57.3925V34.7673H58.5622C59.1632 34.7673 59.5978 34.8668 59.8661 35.0655C60.1345 35.2645 60.2687 35.5949 60.2687 36.0569C60.2687 36.5358 60.1359 36.8866 59.8703 37.1093Z" fill="#F4F4F6"/>
<path d="M62.2845 36.4758C62.0902 37.1436 61.8352 37.4777 61.5194 37.4777C61.4215 37.4777 61.346 37.4693 61.293 37.4524V37.8305C61.374 37.8528 61.4691 37.8641 61.5781 37.8641C61.8827 37.8641 62.1308 37.7276 62.3223 37.4545C62.5137 37.1814 62.6702 36.7545 62.7919 36.1733C62.9134 35.5921 63.0162 34.7486 63.1 33.6423H64.7142V37.8221H65.125V33.2559H62.7269C62.6263 34.7345 62.4788 35.8078 62.2845 36.4758Z" fill="#F4F4F6"/>
<path d="M68.2336 33.1758C67.7444 33.1758 67.2496 33.2934 66.7494 33.5286L66.9045 33.8899C67.3573 33.6547 67.7947 33.537 68.2168 33.537C68.6081 33.537 68.8918 33.6477 69.0679 33.8689C69.244 34.0902 69.332 34.4178 69.332 34.8519V35.1543L68.4642 35.1796C67.7625 35.1936 67.2266 35.3238 66.8563 35.5702C66.4859 35.8167 66.3008 36.1626 66.3008 36.6078C66.3008 37.0139 66.4251 37.3318 66.6739 37.5614C66.9226 37.7911 67.2706 37.9059 67.7179 37.9059C68.0477 37.9059 68.3335 37.845 68.5753 37.7231C68.817 37.6013 69.0525 37.3933 69.2817 37.0993H69.3153L69.4201 37.8219H69.7262V34.7847C69.7262 34.233 69.6025 33.8269 69.3551 33.5664C69.1077 33.306 68.7339 33.1758 68.2336 33.1758ZM69.3153 35.9483C69.3153 36.444 69.1748 36.8312 68.8939 37.1099C68.613 37.3885 68.2294 37.5278 67.743 37.5278C67.4244 37.5278 67.1777 37.4487 67.003 37.2904C66.8283 37.1323 66.741 36.9103 66.741 36.6246C66.741 36.2662 66.8772 36.0023 67.1498 35.8328C67.4223 35.6634 67.8785 35.5633 68.5187 35.5324L69.3153 35.4988V35.9483Z" fill="#F4F4F6"/>
<path d="M71.1992 37.8221H71.6143V33.6171H73.8783V33.2559H71.1992V37.8221Z" fill="#F4F4F6"/>
<path d="M76.5758 33.167C75.9469 33.167 75.4522 33.375 75.0916 33.7908C74.7311 34.2067 74.5508 34.7871 74.5508 35.532C74.5508 36.0053 74.6318 36.4226 74.794 36.7839C74.956 37.1451 75.1894 37.4224 75.4941 37.6157C75.7987 37.8089 76.1509 37.9055 76.5506 37.9055C77.1851 37.9055 77.6827 37.6961 78.0433 37.2775C78.4038 36.8588 78.5841 36.277 78.5841 35.532C78.5841 34.7983 78.4059 34.2207 78.0495 33.7992C77.6931 33.3778 77.2019 33.167 76.5758 33.167ZM77.7351 37.0002C77.4598 37.3517 77.0706 37.5274 76.5674 37.5274C76.0643 37.5274 75.6751 37.3517 75.3998 37.0002C75.1244 36.6488 74.9868 36.1594 74.9868 35.532C74.9868 34.8992 75.123 34.4098 75.3956 34.0638C75.6681 33.718 76.0559 33.5451 76.559 33.5451C77.0622 33.5451 77.4527 33.7188 77.7309 34.066C78.009 34.4132 78.148 34.902 78.148 35.532C78.148 36.1594 78.0104 36.6488 77.7351 37.0002Z" fill="#F4F4F6"/>
<path d="M82.956 33.2559H80.7633C80.7521 34.0904 80.6431 34.8605 80.4362 35.5663C80.2294 36.272 79.9359 36.8924 79.5558 37.4272H79.2539V39.3722H79.6648V37.8221H83.1531V39.3722H83.564V37.4272H82.956V33.2559ZM82.541 37.4272H80.0254C80.6906 36.419 81.0568 35.1574 81.1239 33.6423H82.541V37.4272Z" fill="#F4F4F6"/>
<path d="M84.9463 33.2559H84.5312V37.8221H84.9463V33.2559Z" fill="#F4F4F6"/>
<path d="M84.7368 31.584C84.5607 31.584 84.4727 31.7184 84.4727 31.9873C84.4727 32.2589 84.5607 32.3947 84.7368 32.3947C84.8234 32.3947 84.8912 32.3584 84.9401 32.2855C84.989 32.2127 85.0135 32.1132 85.0135 31.9873C85.0135 31.8584 84.989 31.759 84.9401 31.689C84.8912 31.619 84.8234 31.584 84.7368 31.584Z" fill="#F4F4F6"/>
<path d="M86.8416 37.4188L86.8668 36.5577V33.2559H86.4727V37.8221H87.0135L89.7178 33.6591L89.701 34.5412V37.8221H90.0993V33.2559H89.5459L86.8416 37.4188Z" fill="#F4F4F6"/>
<path d="M88.2903 32.6081C89.1232 32.6081 89.569 32.2147 89.6277 31.4277H89.2588C89.2253 31.7274 89.1337 31.9431 88.9842 32.0746C88.8346 32.2063 88.6061 32.2721 88.2987 32.2721C87.9884 32.2721 87.7592 32.2085 87.6111 32.081C87.4629 31.9536 87.3679 31.7358 87.326 31.4277H86.957C86.9934 31.8422 87.1206 32.1425 87.3386 32.3288C87.5566 32.5151 87.8738 32.6081 88.2903 32.6081Z" fill="#F4F4F6"/>
<path d="M94.9331 35.2596H92.0401V33.2559H91.625V37.8221H92.0401V35.6209H94.9331V37.8221H95.3439V33.2559H94.9331V35.2596Z" fill="#F4F4F6"/>
<path d="M97.24 37.4188L97.2652 36.5577V33.2559H96.8711V37.8221H97.412L100.116 33.6591L100.099 34.5412V37.8221H100.498V33.2559H99.9443L97.24 37.4188Z" fill="#F4F4F6"/>
<path d="M103.162 32.081C103.014 31.9536 102.919 31.7358 102.877 31.4277H102.508C102.544 31.8422 102.671 32.1425 102.889 32.3288C103.107 32.5151 103.425 32.6081 103.841 32.6081C104.674 32.6081 105.12 32.2147 105.179 31.4277H104.81C104.776 31.7274 104.684 31.9431 104.535 32.0746C104.385 32.2063 104.157 32.2721 103.849 32.2721C103.539 32.2721 103.31 32.2085 103.162 32.081Z" fill="#F4F4F6"/>
<path d="M102.392 37.4188L102.418 36.5577V33.2559H102.023V37.8221H102.564L105.269 33.6591L105.252 34.5412V37.8221H105.65V33.2559H105.097L102.392 37.4188Z" fill="#F4F4F6"/>
<path d="M111.736 33.1672V31.2852H111.325V33.1672C110.632 33.2175 110.095 33.4486 109.715 33.8602C109.335 34.2719 109.145 34.8293 109.145 35.5322C109.145 36.2464 109.337 36.8107 109.723 37.2251C110.109 37.6396 110.643 37.8664 111.325 37.9056V39.8885H111.736V37.9056C112.42 37.8553 112.952 37.6228 113.331 37.2083C113.71 36.7939 113.899 36.2351 113.899 35.5322C113.899 34.8293 113.71 34.2719 113.333 33.8602C112.956 33.4486 112.423 33.2175 111.736 33.1672ZM111.325 37.5192C110.768 37.4772 110.339 37.2847 110.035 36.9415C109.732 36.5986 109.581 36.1287 109.581 35.5322C109.581 34.9414 109.728 34.4757 110.023 34.1354C110.318 33.7951 110.752 33.6013 111.325 33.5536V37.5192ZM113.019 36.9226C112.722 37.2728 112.295 37.4716 111.736 37.5192V33.5536C112.289 33.6013 112.715 33.7966 113.014 34.1397C113.313 34.4827 113.463 34.9469 113.463 35.5322C113.463 36.1092 113.315 36.5726 113.019 36.9226Z" fill="#F4F4F6"/>
<path d="M116.92 33.167C116.291 33.167 115.796 33.375 115.435 33.7908C115.075 34.2067 114.895 34.7871 114.895 35.532C114.895 36.0053 114.976 36.4226 115.138 36.7839C115.3 37.1451 115.533 37.4224 115.838 37.6157C116.142 37.8089 116.495 37.9055 116.894 37.9055C117.529 37.9055 118.027 37.6961 118.387 37.2775C118.748 36.8588 118.928 36.277 118.928 35.532C118.928 34.7983 118.75 34.2207 118.393 33.7992C118.037 33.3778 117.546 33.167 116.92 33.167ZM118.079 37.0002C117.804 37.3517 117.414 37.5274 116.911 37.5274C116.408 37.5274 116.019 37.3517 115.744 37.0002C115.468 36.6488 115.331 36.1594 115.331 35.532C115.331 34.8992 115.467 34.4098 115.739 34.0638C116.012 33.718 116.4 33.5451 116.903 33.5451C117.406 33.5451 117.797 33.7188 118.075 34.066C118.353 34.4132 118.492 34.902 118.492 35.532C118.492 36.1594 118.354 36.6488 118.079 37.0002Z" fill="#F4F4F6"/>
<path d="M123.499 35.2596H120.606V33.2559H120.191V37.8221H120.606V35.6209H123.499V37.8221H123.91V33.2559H123.499V35.2596Z" fill="#F4F4F6"/>
<path d="M128.546 33.2559H126.353C126.342 34.0904 126.233 34.8605 126.026 35.5663C125.819 36.272 125.526 36.8924 125.146 37.4272H124.844V39.3722H125.255V37.8221H128.743V39.3722H129.154V37.4272H128.546V33.2559ZM128.131 37.4272H125.615C126.28 36.419 126.647 35.1574 126.714 33.6423H128.131V37.4272Z" fill="#F4F4F6"/>
</g>
<defs>
<clipPath id="clip0_363_830">
<rect width="193" height="51" fill="white"/>
</clipPath>
</defs>
</svg>
