<svg width="154" height="42" viewBox="0 0 154 42" fill="none" xmlns="http://www.w3.org/2000/svg">
<g clip-path="url(#clip0_363_739)">
<path d="M35.9393 21.46C37.2108 21.7024 38.6855 22.3636 39.8349 22.9162C40.0685 23.0283 40.286 23.14 40.491 23.2498C40.571 22.5106 40.6152 21.7606 40.6152 21C40.6152 9.67817 31.5232 0.5 20.3076 0.5C9.09202 0.5 0 9.67817 0 21C0 32.3218 9.09202 41.5 20.3076 41.5C28.1511 41.5 34.9512 37.0082 38.3341 30.4366C37.5806 30.0511 36.5806 29.7811 36.2453 29.7228C32.1022 29.007 30.0149 33.1099 26.4365 33.3049C23.3586 33.4737 18.598 31.5616 16.0145 30.1848C13.7243 28.9623 11.7357 27.6144 9.25108 26.7342C8.61631 26.509 7.15222 26.1625 7.18241 25.4642C7.66681 24.9995 8.86508 24.972 9.63264 25.0615C10.502 25.164 11.2253 25.3558 12.0288 25.6157C13.4784 26.0846 15.0251 26.568 16.5036 27.0762C17.2397 27.3302 17.9918 27.5943 18.7751 27.7977C19.9602 28.1079 26.0949 27.9795 26.3565 26.7543C25.1486 26.3821 19.2142 26.5781 17.3541 24.9995C16.6277 24.3818 16.6608 23.8045 17.8244 23.6948C18.761 23.6066 19.5173 23.7815 20.3993 23.8016C22.0803 23.8419 23.7475 23.6414 25.3443 23.3844C26.1277 23.2588 26.8782 23.1378 27.6631 22.9804C28.4007 22.8318 29.1886 22.6196 29.8864 22.5028C31.2743 22.2705 33.539 22.4898 34.8257 22.8013C36.0837 23.1073 37.5718 23.7049 38.7213 24.2575C39.3125 24.5414 39.8223 24.8254 40.2128 25.0739C40.2528 24.8737 40.2858 24.6708 40.3199 24.4684C39.9263 24.2271 39.4577 23.9719 38.9442 23.7254C38.2856 23.4088 36.5773 22.6293 34.946 22.2326C33.9167 21.9834 32.4746 21.8224 31.2718 21.8224C30.7064 21.8224 30.2105 21.8574 29.798 21.9264C29.3713 21.9979 28.9124 22.1036 28.4686 22.2059C28.4339 22.2139 28.3983 22.2219 28.3633 22.2299L28.3653 21.715C28.3653 21.715 30.3231 20.3896 35.9393 21.46ZM24.6523 27.0891C24.2078 27.3517 21.8402 27.4457 21.164 27.4052L21.1627 26.7485L24.6523 27.0891ZM9.69104 24.4816C9.44277 24.4527 9.17523 24.4374 8.91672 24.4374C8.75751 24.4374 8.58471 24.4438 8.40777 24.4588C8.33352 24.3566 8.29078 24.2455 8.29603 24.1229C8.78046 23.6582 9.9787 23.6307 10.7463 23.7202C11.1822 23.7716 11.5813 23.8455 11.9722 23.9391C11.972 24.2369 11.9724 24.5346 11.9704 24.8323C11.9701 24.8879 11.9716 24.9396 11.974 24.99C11.3163 24.7835 10.5829 24.5868 9.69104 24.4816ZM19.1711 23.1838C18.5309 23.1997 15.7686 22.9587 16.4763 24.6702C16.8508 25.5781 18.0931 26.0298 19.1911 26.3286L19.1782 27.3662C18.4907 27.2883 14.6179 25.9217 13.5971 25.6011C13.3669 25.5291 13.1496 25.4512 12.898 25.3733C12.5277 25.2591 12.4949 25.3328 12.4978 24.8896C12.502 24.2692 12.5007 23.6485 12.5007 23.0281C12.5007 21.872 12.4419 19.362 12.5091 18.1974L19.1911 18.2062L19.1711 23.1838ZM19.1911 16.1215H11.3269C10.8526 16.1215 10.4681 15.7334 10.4681 15.2546V12.3612C10.4681 11.8824 10.8526 11.4943 11.3269 11.4943H19.1911V16.1215ZM27.8405 22.4204C27.0456 22.7251 22.1462 23.3701 21.1598 23.2864L21.1742 18.1958L27.8518 18.2133L27.8405 22.4204ZM29.8791 15.2546C29.8791 15.7334 29.4947 16.1215 29.0204 16.1215H21.1562V11.4943H29.0204C29.4947 11.4943 29.8791 11.8824 29.8791 12.3612V15.2546Z" fill="#C01F2F"/>
<path d="M52.8933 10.8319C52.3179 10.5306 51.6326 10.3799 50.837 10.3799H45.4531V21.1427H47.9051V17.6412H50.837C51.6326 17.6412 52.3179 17.4905 52.8933 17.1892C53.4683 16.8878 53.9093 16.4645 54.2165 15.9191C54.5233 15.3738 54.677 14.7377 54.677 14.0106C54.677 13.2836 54.5233 12.6472 54.2165 12.1019C53.9093 11.5566 53.4683 11.1333 52.8933 10.8319ZM51.8099 15.0653C51.5418 15.3189 51.1743 15.4456 50.7073 15.4456H47.9051V12.5755H50.7073C51.1743 12.5755 51.5418 12.7024 51.8099 12.9558C52.0779 13.2094 52.2121 13.561 52.2121 14.0106C52.2121 14.4603 52.0779 14.8119 51.8099 15.0653Z" fill="#C01F2F"/>
<path d="M62.1781 12.9629L59.8948 18.834L57.6504 12.9629H55.0039L58.2083 20.4968H59.2482L59.2202 20.5686C59.0385 21.0278 58.8116 21.3435 58.5391 21.5158C58.2667 21.688 57.9489 21.774 57.5856 21.774C57.179 21.774 56.805 21.7142 56.4634 21.5947C56.1217 21.475 55.7564 21.2765 55.3672 20.9991V22.879C55.7477 23.166 56.1391 23.3813 56.5412 23.5248C56.9434 23.6683 57.404 23.74 57.9229 23.74C58.3466 23.74 58.7552 23.6658 59.1488 23.5176C59.5423 23.3692 59.9078 23.123 60.2451 22.7786C60.5824 22.4342 60.872 21.975 61.1142 21.401L64.7338 12.9629H62.1781Z" fill="#C01F2F"/>
<path d="M69.9757 18.207L71.5547 21.1426H74.292L71.5096 16.2492L74.0844 12.9629H71.5028L67.9351 17.8089V12.9629H65.5352V21.1426H67.6757L69.9757 18.207Z" fill="#C01F2F"/>
<path d="M84.0617 21.1426V12.9629H80.9611L77.3416 18.6754V12.9629H74.9805V21.1426H77.9903L81.6876 15.3072V21.1426H84.0617Z" fill="#C01F2F"/>
<path d="M100.33 21.1426V12.9629H96.7108L94.6128 18.7462L92.4816 12.9629H88.875V21.1426H91.1324V15.1143L93.4805 21.1426H95.7118L98.073 15.0566V21.1426H100.33Z" fill="#C01F2F"/>
<path d="M110.956 21.1426V12.9629H107.856L104.236 18.6754V12.9629H101.875V21.1426H104.885L108.582 15.3072V21.1426H110.956Z" fill="#C01F2F"/>
<path d="M116.107 15.5245C116.097 15.3443 116.085 15.1537 116.071 14.9576H119.195V21.1426H121.594V12.9629H113.759C113.828 13.6613 113.88 14.2999 113.914 14.8787C113.949 15.4577 113.966 15.9765 113.966 16.4357C113.966 17.4212 113.873 18.1269 113.687 18.5524C113.501 18.9782 113.192 19.191 112.76 19.191C112.639 19.191 112.502 19.1744 112.351 19.1407C112.2 19.1073 112.046 19.0571 111.891 18.9901V20.8987C112.124 21.0519 112.366 21.1592 112.617 21.2216C112.868 21.2837 113.127 21.3148 113.395 21.3148C114.364 21.3148 115.065 20.9585 115.497 20.2457C115.93 19.5331 116.146 18.3874 116.146 16.8088C116.146 16.4263 116.133 15.998 116.107 15.5245Z" fill="#C01F2F"/>
<path d="M125.004 20.827C125.704 21.1904 126.521 21.3723 127.455 21.3723C128.39 21.3723 129.209 21.1904 129.914 20.827C130.619 20.4635 131.166 19.9588 131.555 19.3131C131.944 18.6673 132.139 17.9138 132.139 17.0528C132.139 16.1918 131.944 15.4384 131.555 14.7927C131.166 14.1469 130.619 13.6423 129.914 13.2787C129.209 12.9152 128.39 12.7334 127.455 12.7334C126.53 12.7334 125.715 12.9152 125.01 13.2787C124.305 13.6423 123.758 14.1469 123.369 14.7927C122.98 15.4384 122.785 16.1918 122.785 17.0528C122.785 17.9044 122.98 18.6554 123.369 19.3058C123.758 19.9566 124.303 20.4635 125.004 20.827ZM125.484 15.8187C125.665 15.4743 125.925 15.2088 126.262 15.0222C126.599 14.8357 126.997 14.7424 127.455 14.7424C127.931 14.7424 128.335 14.8357 128.668 15.0222C129.001 15.2088 129.256 15.4743 129.434 15.8187C129.611 16.1631 129.7 16.5746 129.7 17.0528C129.7 17.5313 129.611 17.9425 129.434 18.287C129.256 18.6314 129.001 18.8969 128.668 19.0834C128.335 19.27 127.931 19.3632 127.455 19.3632C126.997 19.3632 126.599 19.27 126.262 19.0834C125.925 18.8969 125.665 18.6314 125.484 18.287C125.302 17.9425 125.211 17.5313 125.211 17.0528C125.211 16.5746 125.302 16.1631 125.484 15.8187Z" fill="#C01F2F"/>
<path d="M136.387 15.0151C136.703 14.8335 137.072 14.7424 137.496 14.7424C138.032 14.7424 138.489 14.8812 138.865 15.1586C139.241 15.4362 139.477 15.838 139.572 16.364H141.972C141.903 15.637 141.663 15.0032 141.252 14.4626C140.841 13.9222 140.313 13.4988 139.669 13.1926C139.025 12.8865 138.301 12.7334 137.496 12.7334C136.605 12.7334 135.818 12.9152 135.135 13.2787C134.452 13.6423 133.92 14.1494 133.539 14.7998C133.159 15.4505 132.969 16.2014 132.969 17.0528C132.969 17.9044 133.159 18.6554 133.539 19.3059C133.92 19.9566 134.452 20.4635 135.135 20.827C135.818 21.1905 136.605 21.3723 137.496 21.3723C138.301 21.3723 139.025 21.2191 139.669 20.9131C140.313 20.607 140.841 20.1812 141.252 19.6359C141.663 19.0906 141.903 18.4592 141.972 17.7417H139.572C139.477 18.2392 139.243 18.6339 138.871 18.9256C138.5 19.2175 138.041 19.3632 137.496 19.3632C137.072 19.3632 136.703 19.2724 136.387 19.0906C136.071 18.909 135.827 18.6457 135.654 18.3013C135.481 17.957 135.395 17.5408 135.395 17.0528C135.395 16.565 135.481 16.1488 135.654 15.8043C135.827 15.46 136.071 15.1969 136.387 15.0151Z" fill="#C01F2F"/>
<path d="M142.246 14.9864H145.113V21.1426H147.526V14.9864H150.406V12.9629H142.246V14.9864Z" fill="#C01F2F"/>
<path d="M152.573 12.1018C153.005 12.1018 153.351 11.9799 153.611 11.7359C153.87 11.4919 154 11.1691 154 10.7673C154 10.356 153.87 10.0307 153.611 9.79142C153.351 9.55242 153.005 9.43262 152.573 9.43262C152.149 9.43262 151.803 9.55242 151.535 9.79142C151.267 10.0307 151.133 10.356 151.133 10.7673C151.133 11.1691 151.267 11.4919 151.535 11.7359C151.803 11.9799 152.149 12.1018 152.573 12.1018Z" fill="#C01F2F"/>
<path d="M151.367 12.8481V21.1427H153.767V12.8481L152.561 13.1208L151.367 12.8481Z" fill="#C01F2F"/>
<path d="M48.0391 28.469C47.7581 28.254 47.3366 28.1465 46.7746 28.1465H45.7944V26.2925H48.1997V25.9683H45.4531V30.9056H46.8515C47.3689 30.9056 47.7665 30.7829 48.0442 30.5375C48.3218 30.2922 48.4607 29.9421 48.4607 29.4872C48.4607 29.0234 48.3202 28.684 48.0391 28.469ZM47.7715 30.3332C47.5596 30.5122 47.234 30.6017 46.7946 30.6017H45.7944V28.4505H46.7277C47.2072 28.4505 47.5541 28.5304 47.7682 28.6902C47.9823 28.8501 48.0893 29.1158 48.0893 29.4872C48.0893 29.8722 47.9834 30.1542 47.7715 30.3332Z" fill="#C01F2F"/>
<path d="M49.6974 29.8234C49.5424 30.3603 49.3389 30.6289 49.0869 30.6289C49.0088 30.6289 48.9486 30.6221 48.9062 30.6086V30.9125C48.9709 30.9305 49.0468 30.9396 49.1337 30.9396C49.3768 30.9396 49.5748 30.8298 49.7276 30.6103C49.8803 30.3907 50.0052 30.0475 50.1023 29.5803C50.1993 29.1131 50.2812 28.4349 50.3481 27.5456H51.6361V30.9058H51.964V27.2349H50.0504C49.9701 28.4236 49.8524 29.2864 49.6974 29.8234Z" fill="#C01F2F"/>
<path d="M54.4446 27.1704C54.0542 27.1704 53.6595 27.265 53.2603 27.4541L53.3841 27.7445C53.7454 27.5554 54.0944 27.4608 54.4312 27.4608C54.7434 27.4608 54.9698 27.5498 55.1103 27.7276C55.2508 27.9055 55.3211 28.1689 55.3211 28.5179V28.761L54.6286 28.7813C54.0687 28.7926 53.6411 28.8973 53.3456 29.0953C53.05 29.2935 52.9023 29.5716 52.9023 29.9295C52.9023 30.256 53.0015 30.5116 53.2001 30.6961C53.3985 30.8808 53.6762 30.973 54.0331 30.973C54.2962 30.973 54.5243 30.9241 54.7172 30.8261C54.9101 30.7282 55.098 30.561 55.2809 30.3246H55.3077L55.3913 30.9055H55.6355V28.4639C55.6355 28.0203 55.5368 27.6939 55.3395 27.4844C55.1421 27.2751 54.8438 27.1704 54.4446 27.1704ZM55.3077 29.3993C55.3077 29.7978 55.1956 30.1091 54.9715 30.3331C54.7473 30.5571 54.4412 30.6691 54.0532 30.6691C53.7989 30.6691 53.602 30.6055 53.4627 30.4783C53.3233 30.3511 53.2536 30.1727 53.2536 29.943C53.2536 29.6549 53.3623 29.4427 53.5798 29.3064C53.7972 29.1702 54.1613 29.0897 54.6721 29.065L55.3077 29.0379V29.3993Z" fill="#C01F2F"/>
<path d="M56.8125 30.9058H57.1437V27.5253H58.9502V27.2349H56.8125V30.9058Z" fill="#C01F2F"/>
<path d="M61.1002 27.1636C60.5984 27.1636 60.2036 27.3308 59.9159 27.6651C59.6282 27.9994 59.4844 28.466 59.4844 29.0649C59.4844 29.4454 59.549 29.7808 59.6784 30.0713C59.8077 30.3617 59.994 30.5846 60.2371 30.74C60.4802 30.8953 60.7612 30.9729 61.0801 30.9729C61.5864 30.9729 61.9834 30.8047 62.2711 30.4681C62.5588 30.1315 62.7026 29.6638 62.7026 29.0649C62.7026 28.475 62.5605 28.0107 62.2761 27.6719C61.9917 27.333 61.5998 27.1636 61.1002 27.1636ZM62.0252 30.2452C61.8055 30.5278 61.495 30.669 61.0935 30.669C60.692 30.669 60.3815 30.5278 60.1618 30.2452C59.9421 29.9626 59.8323 29.5692 59.8323 29.0649C59.8323 28.5561 59.941 28.1627 60.1585 27.8845C60.3759 27.6066 60.6854 27.4675 61.0868 27.4675C61.4883 27.4675 61.7999 27.6072 62.0219 27.8863C62.2438 28.1654 62.3547 28.5584 62.3547 29.0649C62.3547 29.5692 62.2449 29.9626 62.0252 30.2452Z" fill="#C01F2F"/>
<path d="M66.1923 27.2349H64.4426C64.4337 27.9058 64.3467 28.5249 64.1817 29.0923C64.0166 29.6596 63.7824 30.1583 63.4792 30.5883H63.2383V32.1519H63.5662V30.9058H66.3495V32.1519H66.6774V30.5883H66.1923V27.2349ZM65.8611 30.5883H63.8539C64.3846 29.7778 64.6768 28.7635 64.7304 27.5456H65.8611V30.5883Z" fill="#C01F2F"/>
<path d="M67.7804 27.2349H67.4492V30.9058H67.7804V27.2349Z" fill="#C01F2F"/>
<path d="M67.6131 25.8906C67.4726 25.8906 67.4023 25.9986 67.4023 26.2148C67.4023 26.4332 67.4726 26.5424 67.6131 26.5424C67.6822 26.5424 67.7363 26.5132 67.7754 26.4546C67.8144 26.3961 67.8339 26.3161 67.8339 26.2148C67.8339 26.1113 67.8144 26.0314 67.7754 25.975C67.7363 25.9188 67.6822 25.8906 67.6131 25.8906Z" fill="#C01F2F"/>
<path d="M69.2944 30.5815L69.3145 29.8893V27.2349H69V30.9058H69.4316L71.5894 27.559L71.576 28.2682V30.9058H71.8938V27.2349H71.4522L69.2944 30.5815Z" fill="#C01F2F"/>
<path d="M70.4467 26.7146C71.1113 26.7146 71.467 26.3983 71.5138 25.7656H71.2195C71.1927 26.0065 71.1196 26.1799 71.0003 26.2857C70.881 26.3915 70.6987 26.4444 70.4534 26.4444C70.2058 26.4444 70.0229 26.3933 69.9047 26.2908C69.7865 26.1883 69.7107 26.0133 69.6772 25.7656H69.3828C69.4118 26.0989 69.5133 26.3403 69.6872 26.49C69.8612 26.6398 70.1143 26.7146 70.4467 26.7146Z" fill="#C01F2F"/>
<path d="M75.7529 28.8457H73.4445V27.2349H73.1133V30.9058H73.4445V29.1362H75.7529V30.9058H76.0807V27.2349H75.7529V28.8457Z" fill="#C01F2F"/>
<path d="M77.5913 30.5815L77.6114 29.8893V27.2349H77.2969V30.9058H77.7284L79.8863 27.559L79.8729 28.2682V30.9058H80.1907V27.2349H79.7491L77.5913 30.5815Z" fill="#C01F2F"/>
<path d="M82.3148 26.2908C82.1966 26.1883 82.1208 26.0133 82.0874 25.7656H81.793C81.8219 26.0989 81.9234 26.3403 82.0974 26.49C82.2713 26.6398 82.5245 26.7146 82.8568 26.7146C83.5214 26.7146 83.8771 26.3983 83.924 25.7656H83.6296C83.6028 26.0065 83.5297 26.1799 83.4104 26.2857C83.2911 26.3915 83.1088 26.4444 82.8635 26.4444C82.6159 26.4444 82.433 26.3933 82.3148 26.2908Z" fill="#C01F2F"/>
<path d="M81.7006 30.5815L81.7207 29.8893V27.2349H81.4062V30.9058H81.8378L83.9956 27.559L83.9822 28.2682V30.9058H84.3V27.2349H83.8585L81.7006 30.5815Z" fill="#C01F2F"/>
<path d="M89.1574 27.1639V25.6509H88.8295V27.1639C88.2764 27.2043 87.8481 27.3902 87.5448 27.7211C87.2415 28.052 87.0898 28.5001 87.0898 29.0652C87.0898 29.6393 87.2437 30.093 87.5515 30.4261C87.8593 30.7594 88.2853 30.9417 88.8295 30.9732V32.5673H89.1574V30.9732C89.7037 30.9327 90.128 30.7458 90.4302 30.4126C90.7325 30.0795 90.8836 29.6303 90.8836 29.0652C90.8836 28.5001 90.7331 28.052 90.432 27.7211C90.1309 27.3901 89.706 27.2043 89.1574 27.1639ZM88.8295 30.6625C88.3856 30.6288 88.0428 30.474 87.8007 30.1982C87.5588 29.9224 87.4378 29.5447 87.4378 29.0652C87.4378 28.5902 87.5554 28.2158 87.7907 27.9423C88.026 27.6687 88.3723 27.5129 88.8295 27.4746V30.6625ZM90.181 30.183C89.9446 30.4644 89.6034 30.6243 89.1574 30.6625V27.4745C89.5989 27.5129 89.9391 27.6699 90.1777 27.9457C90.4163 28.2215 90.5357 28.5946 90.5357 29.0652C90.5357 29.529 90.4174 29.9016 90.181 30.183Z" fill="#C01F2F"/>
<path d="M93.2956 27.1636C92.7937 27.1636 92.399 27.3308 92.1113 27.6651C91.8236 27.9994 91.6797 28.466 91.6797 29.0649C91.6797 29.4454 91.7444 29.7808 91.8738 30.0713C92.0031 30.3617 92.1893 30.5846 92.4324 30.74C92.6755 30.8953 92.9565 30.9729 93.2755 30.9729C93.7817 30.9729 94.1788 30.8047 94.4665 30.4681C94.7541 30.1315 94.898 29.6638 94.898 29.0649C94.898 28.475 94.7558 28.0107 94.4715 27.6719C94.1871 27.333 93.7951 27.1636 93.2956 27.1636ZM94.2205 30.2452C94.0008 30.5278 93.6903 30.669 93.2889 30.669C92.8874 30.669 92.5768 30.5278 92.3572 30.2452C92.1375 29.9626 92.0276 29.5692 92.0276 29.0649C92.0276 28.5561 92.1364 28.1627 92.3538 27.8845C92.5713 27.6066 92.8807 27.4675 93.2822 27.4675C93.6836 27.4675 93.9953 27.6072 94.2172 27.8863C94.4391 28.1654 94.5501 28.5584 94.5501 29.0649C94.5501 29.5692 94.4402 29.9626 94.2205 30.2452Z" fill="#C01F2F"/>
<path d="M98.5419 28.8457H96.2335V27.2349H95.9023V30.9058H96.2335V29.1362H98.5419V30.9058H98.8697V27.2349H98.5419V28.8457Z" fill="#C01F2F"/>
<path d="M102.571 27.2349H100.822C100.813 27.9058 100.726 28.5249 100.561 29.0923C100.395 29.6596 100.161 30.1583 99.8581 30.5883H99.6172V32.1519H99.945V30.9058H102.728V32.1519H103.056V30.5883H102.571V27.2349ZM102.24 30.5883H100.233C100.763 29.7778 101.056 28.7635 101.109 27.5456H102.24V30.5883Z" fill="#C01F2F"/>
</g>
<defs>
<clipPath id="clip0_363_739">
<rect width="154" height="41" fill="white" transform="translate(0 0.5)"/>
</clipPath>
</defs>
</svg>
