<svg width="314" height="131" viewBox="0 0 314 131" fill="none" xmlns="http://www.w3.org/2000/svg">
<path d="M108.679 11.2673C116.769 0.480222 91.3219 1.99404 86.8948 2.16937C60.5872 3.21126 35.0256 12.9245 14.2397 29.2068C-1.31396 41.3905 -13.2395 65.1323 -9.20988 85.0116C-2.54025 117.915 45.1284 123.419 71.1336 126.337C121.192 131.953 170.279 128.234 219.84 120.186C236.722 117.444 253.554 113.161 269.878 108.077C282.235 104.228 295.404 99.7594 305.116 90.8419C312.642 83.932 313.56 77.1249 309.217 67.6487C300.775 49.2306 274.72 42.9622 257.192 37.7281C227.384 28.827 194.67 27.0035 163.843 24.8501C133.025 22.6973 103.591 24.3465 72.9276 27.4129" stroke="#C01F2F" stroke-width="3" stroke-linecap="round"/>
</svg>
