<svg width="137" height="46" viewBox="0 0 137 46" fill="none" xmlns="http://www.w3.org/2000/svg">
<path fill-rule="evenodd" clip-rule="evenodd" d="M22.7739 17.8181C23.3367 19.8478 23.3993 21.6976 23.3993 21.6976C25.1515 19.3105 26.9976 17.1624 29.3439 15.3416C31.9091 13.3722 33.6926 12.1793 36.9782 10.7762C39.8886 9.52293 41.2957 9.16433 42.7353 8.71755C44.1992 8.27167 45.6812 7.88336 47.1778 7.55358C48.7112 7.22517 50.182 6.95709 50.182 7.31453C50.182 7.55358 48.4622 8.15007 48.2109 8.2696C47.0215 8.77673 45.8958 9.16434 43.3919 10.2691C40.3889 11.6118 38.1989 13.1332 35.6638 15.1327C33.38 16.9233 31.1899 19.3708 29.2501 21.8473C28.7498 22.4739 27.404 23.9651 26.3097 25.6664C25.3079 27.189 24.4011 28.7997 24.0872 29.3069C23.5243 30.2921 22.4299 32.5295 22.4299 32.5295C22.4299 32.5295 23.4305 32.8579 25.2453 32.7686C27.3102 32.649 28.9061 32.4402 31.5351 31.1578C34.4756 29.7246 36.4154 27.9943 38.5429 25.8753C40.5765 23.8166 42.0473 22.1455 43.8621 19.5495C45.0191 17.8482 45.9583 16.5949 47.4917 13.6705C48.461 11.8207 48.8675 9.79099 49.1489 9.73181C49.4616 9.64245 49.5566 11.5816 49.2752 13.2829C48.6173 17.4606 48.1796 18.6536 46.8651 21.3401C45.9271 23.3095 44.5188 25.3682 42.5164 27.3073C40.4514 29.337 38.7305 30.74 36.0089 32.4402C34.0366 33.6633 32.6608 34.29 30.5008 34.8574C28.0932 35.5143 25.2766 35.3948 24.2123 35.3054C23.2813 35.2461 22.359 35.096 21.4594 34.8574C21.0217 35.5735 20.27 37.9606 20.0199 38.9458C19.7697 39.9299 19.3007 41.0045 19.0505 41.4223C18.6753 42.0791 18.1426 42.5561 17.6735 42.3774C16.7667 42.0791 16.2965 41.2726 16.1101 40.1992C15.8275 38.5281 16.0464 36.7676 16.2664 35.7823C16.5479 34.3805 17.1107 32.6189 17.1107 32.6189C16.6104 32.1431 15.077 30.7099 13.3248 27.6358C11.9177 25.1895 10.8221 21.9064 10.8522 18.6536C10.8834 15.193 11.6652 11.8508 13.2923 8.71754C14.074 7.19499 14.7319 6.30025 15.2947 5.43453C15.89 4.5398 16.6104 3.58472 16.6729 3.58472C16.7667 3.58472 18.424 6.7482 20.0824 10.4478C21.7096 14.2681 22.2111 15.7002 22.7739 17.8181ZM27.0601 8.41814C26.2471 8.98678 26.1521 9.19567 25.6205 9.73181C25.0577 10.2993 24.9639 10.7461 25.0577 11.4923C25.089 11.671 25.214 12.0888 25.3079 12.2686C25.7143 12.8953 26.2784 13.1935 26.9663 13.1935C27.3728 13.1935 28.1244 12.8349 28.8749 11.8799C29.6253 10.926 29.7817 10.5674 29.7817 10.1194C29.7817 9.76199 29.6879 9.34421 29.2188 8.86609C28.7185 8.29978 27.6554 8.03055 27.0601 8.41931L27.0601 8.41814ZM16.5791 4.83805C16.5791 4.83805 16.1714 5.73278 15.7024 6.80739C14.9832 8.35896 14.044 10.5082 13.4811 12.3882C12.7307 14.9842 12.1979 18.8033 12.9496 21.6372C13.2622 22.8325 13.6062 23.6971 14.044 24.7125C14.8257 26.4718 16.0163 28.2334 18.1738 30.1726C18.1738 30.1726 18.8942 29.2477 19.1756 27.6067C19.332 26.6517 19.332 26.4126 19.3945 25.6362C19.4883 24.4433 19.4883 23.1598 19.5196 21.6976C19.5821 19.7886 19.3945 17.6695 18.8942 14.8043C18.6128 13.2829 18.1125 10.5372 17.7361 8.98562C17.3296 7.43405 16.5791 4.83805 16.5791 4.83805ZM83.5034 39.005C81.9713 40.408 79.9364 41.2134 77.8402 41.2134C76.0254 41.2134 74.2106 40.5868 72.7723 39.5122C70.895 38.0801 69.8619 36.0516 69.8619 33.7538C69.8619 31.7241 70.6761 29.8743 72.2083 28.4713C73.7228 27.0657 75.7389 26.2752 77.8402 26.2629C79.9051 26.2629 82.0013 27.0694 83.5046 28.4713C85.0368 29.8743 85.8197 31.7543 85.8197 33.7538C85.8236 34.7351 85.6202 35.7067 85.2219 36.6096C84.8237 37.5124 84.2389 38.3275 83.5034 39.005ZM81.7512 33.7237C81.7512 31.3957 80.1252 29.5459 77.8402 29.5459C75.5251 29.5459 73.9292 31.3957 73.9292 33.7237C73.9292 36.0806 75.4626 37.9014 77.8402 37.9014C80.1565 37.9014 81.7512 36.0516 81.7512 33.7237ZM87.3519 26.5623H91.8581C93.9231 26.5623 95.519 26.5913 96.801 27.5162C97.8954 28.3228 98.4606 29.5157 98.4606 31.0081C98.4606 33.2165 97.3013 34.6486 95.1113 35.0663L99.1786 40.7957H94.5797L91.1377 35.216V40.7957H87.3206V26.5623H87.3519ZM91.9207 33.3047C93.6404 33.3047 94.4546 32.7988 94.4546 31.5454C94.4546 30.0531 93.6729 29.5761 91.9832 29.5761H91.169V33.3361H91.9207V33.3059V33.3047ZM100.649 40.8247V26.5623H105.187C107.063 26.5623 108.566 26.5913 109.723 27.3073C111.038 28.1139 111.819 29.5761 111.819 31.4259C111.819 33.3361 111.1 34.7379 109.755 35.4841C108.721 36.0516 107.596 36.1108 106.188 36.1108H104.467V40.8258H100.649L100.649 40.8247ZM105.249 32.9775C107.002 32.9775 107.877 32.649 107.877 31.2762C107.877 29.9045 106.939 29.6051 105.28 29.6051H104.467V32.9473H105.248V32.9775L105.249 32.9775ZM117.702 38.1695C118.828 38.1695 119.548 37.5428 119.548 36.7073C119.548 35.5735 118.735 35.2451 117.045 34.7983C114.353 34.1113 113.04 33.097 113.04 30.8584C113.04 28.2032 115.073 26.2339 118.202 26.2339C119.862 26.2339 121.331 26.6517 122.646 27.5162L121.362 30.3223C120.424 29.5761 119.423 29.1873 118.483 29.1873C117.483 29.1873 116.826 29.6956 116.826 30.3815C116.826 31.3957 117.858 31.6046 119.204 31.9632C121.863 32.6491 123.334 33.574 123.334 36.2001C123.334 39.1837 121.112 41.2134 117.608 41.2134C115.512 41.2134 113.916 40.5868 112.289 39.1245L114.135 36.2303C115.324 37.4836 116.512 38.1695 117.702 38.1695ZM62.4777 37.9002C60.1326 37.9002 58.6293 36.3498 58.5668 33.7225C58.6293 31.0673 60.1627 29.5459 62.4777 29.5459C63.7922 29.5459 64.8565 30.0832 65.6695 31.1868L69.2053 29.5761C67.6719 27.3979 65.3881 26.2931 62.4777 26.2931C57.8789 26.2931 54.4994 29.4264 54.4994 33.7538C54.4994 38.0801 57.8789 41.2134 62.4777 41.2134C65.3881 41.2134 67.6731 40.1098 69.2053 37.9316L65.6695 36.3197C64.8565 37.3641 63.8235 37.9014 62.4777 37.9014V37.9002ZM67.2342 23.1598V13.8202C67.0153 15.0735 66.7026 15.9381 66.5451 16.5056L64.5126 23.1899H61.7898L59.7562 16.5056C59.5998 15.9381 59.2872 15.1037 59.0683 13.8202V23.1598H55.2511V8.89626H60.4128L62.6654 16.2665C62.8217 16.7144 63.0105 17.3411 63.1344 18.2068C63.2109 17.5444 63.3688 16.893 63.6046 16.2665L65.8896 8.92643H71.0513V23.1888H67.2342L67.2342 23.1598ZM73.3664 8.89626H82.5341V12.0296H77.3399V14.506H82.2527V17.55H77.37V19.9673H82.5642V23.1598H73.3965V8.89625L73.3664 8.89626ZM84.5978 8.89626H89.1041C91.169 8.89626 92.7649 8.92643 94.0469 9.85133C95.1425 10.6567 95.7066 11.8508 95.7066 13.3421C95.7066 15.5505 94.5484 16.9825 92.3584 17.4003L96.4258 23.1308H91.8269L88.3849 17.55V23.1308H84.5678V8.89626H84.599H84.5978ZM89.1979 15.6398C90.9189 15.6398 91.7331 15.1327 91.7331 13.8794C91.7331 12.3882 90.9513 11.91 89.2604 11.91H88.4475V15.67H89.1979V15.6398ZM104.904 20.2063C102.559 20.2063 101.056 18.6536 100.993 16.0286C101.056 13.3722 102.589 11.8509 104.904 11.8509C106.219 11.8509 107.283 12.3882 108.096 13.4918L111.632 11.8799C110.099 9.70163 107.815 8.59801 104.904 8.59801C100.305 8.59801 96.926 11.7313 96.926 16.0576C96.926 20.385 100.305 23.5184 104.904 23.5184C107.815 23.5184 110.1 22.4136 111.632 20.2353L108.096 18.6246C107.252 19.669 106.22 20.2063 104.904 20.2063Z" fill="#F4F4F6"/>
<path fill-rule="evenodd" clip-rule="evenodd" d="M112.54 23.4291H117.14L126.15 8.86499H121.52L118.83 13.1936L115.607 8.86615H111.133L116.765 16.5648L112.54 23.4291Z" fill="#F4F4F6"/>
</svg>
