<svg width="160" height="50" viewBox="0 0 160 50" fill="none" xmlns="http://www.w3.org/2000/svg">
<g clip-path="url(#clip0_413_2579)">
<path d="M101.473 0.258408C101.425 0.252086 101.387 0.221051 101.387 0.173637C101.387 0.126224 101.425 0.0888672 101.473 0.0888672H153.728V31.6288C141.741 14.7966 123.003 3.07508 101.473 0.258408Z" fill="#F4F4F6"/>
<path d="M58.7416 22.0612V28.8382C57.9319 29.525 57.1808 30.0325 56.0398 30.0325C54.6587 30.0325 52.8573 28.8681 52.8573 25.4948C52.8573 21.8529 55.7095 19.2261 58.7416 22.0612ZM113.823 25.4356C113.823 28.0325 112.952 30.092 111.001 30.092C109.049 30.092 108.179 28.0325 108.179 25.4356C108.179 22.8379 109.049 20.7776 111.001 20.7776C112.952 20.7776 113.823 22.8379 113.823 25.4356ZM104.876 25.4356C104.876 28.5701 107.217 31.1672 111.001 31.1672C114.783 31.1672 117.125 28.5701 117.125 25.4356C117.125 22.3006 114.783 19.7031 111.001 19.7031C107.217 19.7031 104.876 22.3006 104.876 25.4356ZM29.8753 25.4356C29.8753 28.0325 29.0046 30.092 27.0532 30.092C25.1016 30.092 24.2306 28.0325 24.2306 25.4356C24.2306 22.8379 25.1016 20.7776 27.0532 20.7776C29.0046 20.7776 29.8753 22.8379 29.8753 25.4356ZM12.792 17.4052H11.0205L7.47792 26.5098L3.69492 16.0322H0.0625L5.67688 31.0175H7.38833L11.0205 21.7638L14.6231 31.0175H16.3351L21.9487 16.0623H20.2378L16.3045 26.5098L12.792 17.4052ZM130.826 31.0468V24.8681C130.826 20.6885 127.614 19.644 125.723 19.644C124.372 19.644 123.231 20.1514 122.09 20.9273L122.029 20.8971V19.8218H119.148V31.0468H122.269V22.0026C123.2 21.1954 124.102 20.8672 124.882 20.8672C126.533 20.8672 127.674 22.45 127.674 24.1805V31.0468H130.826ZM75.5359 31.0468H76.8575L83.4626 15.9715H81.7509L77.1572 26.5698L72.6237 15.9715H68.8413L75.5359 31.0468ZM55.1693 31.2862C56.6403 31.2862 57.8414 30.779 58.922 29.9425L58.9821 29.9724V31.0468H61.8643V13.8816H58.7416V20.7187C57.8712 20.0612 56.5505 19.644 55.1994 19.644C53.4879 19.644 49.405 20.6885 49.405 25.6144C49.405 29.2865 52.6472 31.2862 55.1693 31.2862ZM89.1284 22.898C88.8284 27.1672 95.1335 26.152 94.9535 28.7494C94.8627 29.7925 93.9622 30.152 93.0019 30.1221C91.4401 30.002 90.4798 29.1066 89.6391 28.1215L88.7088 30.1813C89.9685 30.8977 91.3499 31.256 92.551 31.346C95.2534 31.5247 97.536 30.3598 97.6848 27.7638C97.955 23.7339 91.4401 24.2405 91.5606 22.181C91.621 21.2856 92.6406 20.8382 93.6917 20.8971C94.7731 20.9868 95.6138 21.5839 96.5441 22.4195L97.3854 20.569C96.2144 20.0612 95.1035 19.8218 94.1128 19.733C91.2005 19.5543 89.2489 21.0764 89.1284 22.898ZM86.0142 14.7483C85.0827 14.7483 84.3625 15.4649 84.3625 16.3905C84.3625 17.3149 85.0827 18.0316 86.0142 18.0316C86.945 18.0316 87.6652 17.3149 87.6652 16.3905C87.6652 15.4649 86.945 14.7483 86.0142 14.7483ZM87.1852 19.8218H84.0631V31.0471H87.1852V19.8218ZM20.9285 25.4356C20.9285 28.5701 23.2697 31.1672 27.0532 31.1672C30.8357 31.1672 33.1777 28.5701 33.1777 25.4356C33.1777 22.3006 30.8357 19.7031 27.0532 19.7031C23.2697 19.7031 20.9285 22.3006 20.9285 25.4356ZM47.671 13.8816H44.5483V31.0468H47.671V13.8816ZM35.0319 19.8218V31.0468H38.1534V21.9123C39.2051 21.0169 39.9553 21.3152 42.0271 23.0172L43.288 20.2109C42.6574 19.9419 41.8468 19.644 40.6758 19.644C39.505 19.644 38.634 20.2109 38.2141 20.7187L38.0632 20.8971L38.0335 20.8672L38.0632 19.8218H35.0319Z" fill="#F4F4F6"/>
<path d="M102.833 19.8223H99.7109V31.0476H102.833V19.8223Z" fill="#F4F4F6"/>
<path d="M101.37 14.748C100.439 14.748 99.7188 15.4647 99.7188 16.3903C99.7188 17.3147 100.439 18.0314 101.37 18.0314C102.301 18.0314 103.021 17.3147 103.021 16.3903C103.021 15.4647 102.301 14.748 101.37 14.748Z" fill="#F4F4F6"/>
<path d="M2.12481 39.8516L1.63235 43.3346H6.52308L6.98201 39.8516H7.51897L6.47828 47.4407H5.94132L6.45603 43.8131H1.57629L1.08412 47.4407H0.546875L1.58785 39.8516H2.12481Z" fill="#F4F4F6"/>
<path d="M11.2228 46.3778C11.5623 45.8698 11.7323 45.2189 11.7323 44.4249C11.7323 43.8982 11.6126 43.4867 11.3739 43.1896C11.1352 42.893 10.8257 42.7448 10.4451 42.7448C9.88557 42.7448 9.43965 43.0175 9.10759 43.5626C8.77582 44.108 8.60964 44.7551 8.60964 45.5043C8.60964 45.9939 8.72524 46.389 8.95673 46.6893C9.18764 46.9899 9.49369 47.1399 9.8743 47.1399C10.4338 47.1399 10.8835 46.8862 11.2228 46.3778ZM11.5753 46.6841C11.1427 47.2701 10.5719 47.5629 9.86303 47.5629C9.32578 47.5629 8.90066 47.3666 8.58739 46.9732C8.27382 46.5801 8.11719 46.0793 8.11719 45.4709C8.11719 44.5215 8.33567 43.7591 8.77206 43.1841C9.20845 42.6094 9.78095 42.3218 10.4899 42.3218C11.0121 42.3218 11.4317 42.5149 11.749 42.9005C12.0658 43.2861 12.2244 43.8017 12.2244 44.4471C12.2244 45.3525 12.008 46.0976 11.5753 46.6841Z" fill="#F4F4F6"/>
<path d="M13.757 47.0957C13.9286 47.1178 14.0497 47.1327 14.1208 47.1399C14.1916 47.1477 14.2905 47.1511 14.4173 47.1511C15.2231 47.1511 15.8609 46.9195 16.3311 46.456C16.801 45.9922 17.0359 45.3747 17.0359 44.6028C17.0359 44.002 16.8906 43.5365 16.5996 43.2066C16.3085 42.8767 15.9354 42.7112 15.4806 42.7112C15.2863 42.7112 15.0849 42.7431 14.876 42.8057C14.667 42.8689 14.4769 42.9672 14.3052 43.1008L13.757 47.0957ZM14.5404 41.3428L14.3613 42.6778C14.5777 42.5442 14.7867 42.4517 14.9881 42.3997C15.1895 42.3479 15.3982 42.3218 15.6146 42.3218C16.1892 42.3218 16.6516 42.5313 17.0024 42.9505C17.353 43.3695 17.5284 43.9204 17.5284 44.6028C17.5284 45.5083 17.2504 46.2261 16.6946 46.756C16.1389 47.2867 15.3869 47.552 14.4396 47.552C14.335 47.552 14.2159 47.5462 14.0815 47.535C13.9471 47.5238 13.8165 47.5109 13.6896 47.4962L13.3651 49.9H12.8839L13.7905 43.379C13.7009 43.4531 13.6058 43.5497 13.5052 43.6681C13.4044 43.7867 13.3093 43.902 13.2197 44.0135L12.996 44.3135C12.9287 44.4025 12.8914 44.4471 12.8839 44.4471C12.8466 44.4471 12.8281 44.425 12.8281 44.3804C12.8281 44.2842 12.9249 44.0856 13.1191 43.7853C13.3131 43.4847 13.5515 43.2117 13.8353 42.9672L14.0702 41.3428H14.5404Z" fill="#F4F4F6"/>
<path d="M21.9002 44.3916C21.9002 43.8798 21.7901 43.4752 21.5702 43.1784C21.35 42.8818 21.0347 42.7333 20.6246 42.7333C20.244 42.7333 19.9006 42.8781 19.5949 43.1675C19.2888 43.4568 19.0802 43.8649 18.9683 44.3916H21.9002ZM22.3591 44.7586H18.89C18.8822 44.8255 18.8767 44.8905 18.8732 44.9534C18.8692 45.0166 18.8675 45.0965 18.8675 45.1928C18.8675 45.8232 19.0146 46.3074 19.3096 46.6451C19.6041 46.9827 19.9902 47.1511 20.4679 47.1511C20.7289 47.1511 20.9844 47.1048 21.2346 47.012C21.4843 46.9195 21.7511 46.7657 22.0346 46.5505L21.9788 47.0511C21.7398 47.2221 21.4956 47.3499 21.2456 47.435C20.9956 47.5203 20.7251 47.5629 20.4344 47.5629C19.7925 47.5629 19.2888 47.3479 18.9235 46.9175C18.5576 46.4873 18.375 45.9086 18.375 45.1815C18.375 44.4025 18.5932 43.7313 19.0299 43.1675C19.4663 42.6037 20.0052 42.3218 20.6468 42.3218C21.1618 42.3218 21.5794 42.5091 21.9002 42.8838C22.221 43.2586 22.3817 43.8057 22.3817 44.5252C22.3817 44.6439 22.3739 44.7215 22.3591 44.7586Z" fill="#F4F4F6"/>
<path d="M23.234 46.5393H23.8608L23.76 47.3068C23.7002 47.7448 23.5883 48.0821 23.4242 48.3198C23.2603 48.5568 23.0551 48.7166 22.8086 48.7982L22.8424 48.5088C22.9915 48.4201 23.1071 48.2864 23.1892 48.1083C23.2713 47.9301 23.3308 47.7077 23.3684 47.4405H23.1109L23.234 46.5393Z" fill="#F4F4F6"/>
<path d="M29.9478 39.8516L28.851 47.7746C28.7317 48.6053 28.521 49.184 28.2187 49.5105C27.9164 49.8369 27.5005 50.0001 26.9708 50.0001C26.7694 50.0001 26.5754 49.9777 26.3887 49.9335L26.2656 49.4214C26.385 49.451 26.4896 49.4734 26.5792 49.4881C26.6685 49.503 26.7769 49.5105 26.9034 49.5105C27.3141 49.5105 27.6294 49.3863 27.8493 49.1378C28.0693 48.8889 28.2242 48.4312 28.3138 47.7634L29.4108 39.8516H29.9478Z" fill="#F4F4F6"/>
<path d="M33.6485 46.3778C33.9881 45.8698 34.1581 45.2189 34.1581 44.4249C34.1581 43.8982 34.0384 43.4867 33.7997 43.1896C33.561 42.893 33.2515 42.7448 32.8709 42.7448C32.3114 42.7448 31.8654 43.0175 31.5334 43.5626C31.2016 44.108 31.0354 44.7551 31.0354 45.5043C31.0354 45.9939 31.151 46.389 31.3825 46.6893C31.6134 46.9899 31.9195 47.1399 32.3001 47.1399C32.8596 47.1399 33.3093 46.8862 33.6485 46.3778ZM34.0011 46.6841C33.5685 47.2701 32.9977 47.5629 32.2888 47.5629C31.7516 47.5629 31.3264 47.3666 31.0132 46.9732C30.6996 46.5801 30.543 46.0793 30.543 45.4709C30.543 44.5215 30.7615 43.7591 31.1978 43.1841C31.6342 42.6094 32.2067 42.3218 32.9156 42.3218C33.4379 42.3218 33.8575 42.5149 34.1748 42.9005C34.4916 43.2861 34.6502 43.8017 34.6502 44.4471C34.6502 45.3525 34.4338 46.0976 34.0011 46.6841Z" fill="#F4F4F6"/>
<path d="M35.9 42.4443L36.6834 46.6843L38.8209 42.4443H39.3246L35.5419 50.0001H35.0156L36.3476 47.3739L35.4075 42.4443H35.9Z" fill="#F4F4F6"/>
<path d="M45.1963 46.8784C45.4761 46.7267 45.7241 46.5169 45.9405 46.2499L46.4107 42.8002C46.3136 42.7856 46.2127 42.7724 46.1084 42.7611C46.0041 42.7502 45.8882 42.7448 45.7616 42.7448C44.9484 42.7448 44.301 42.9988 43.8198 43.5068C43.3387 44.0149 43.0979 44.666 43.0979 45.46C43.0979 45.9718 43.2118 46.3741 43.4395 46.6672C43.667 46.9603 43.971 47.1066 44.3513 47.1066C44.6348 47.1066 44.9166 47.031 45.1963 46.8784ZM46.9367 42.4554L46.2651 47.4405H45.7839L45.8735 46.7505C45.3735 47.2701 44.8287 47.5295 44.2395 47.5295C43.7545 47.5295 43.3609 47.3405 43.0589 46.962C42.7566 46.5838 42.6055 46.0905 42.6055 45.4821C42.6055 44.5402 42.8927 43.7778 43.4673 43.1953C44.0418 42.6132 44.8177 42.3218 45.7951 42.3218C46.0116 42.3218 46.2185 42.335 46.4162 42.3609C46.6139 42.3867 46.7873 42.4183 46.9367 42.4554Z" fill="#F4F4F6"/>
<path d="M51.7899 43.9852C51.7786 44.1004 51.7653 44.2096 51.7506 44.3133L51.3029 47.4403H50.8218L51.2694 44.3133C51.2841 44.2096 51.2974 44.0967 51.3084 43.9742C51.3197 43.8518 51.3252 43.7682 51.3252 43.7239C51.3252 43.3975 51.2526 43.1544 51.1073 42.9949C50.9616 42.8354 50.7582 42.7558 50.4972 42.7558C49.9001 42.7558 49.2623 43.1415 48.5835 43.913L48.091 47.4403H47.6211L48.3037 42.4441H48.7849L48.6508 43.4012C49.2996 42.7038 49.9562 42.355 50.6203 42.355C51.0006 42.355 51.2937 42.4737 51.4989 42.711C51.7038 42.9484 51.8064 43.2826 51.8064 43.7127C51.8064 43.7794 51.8009 43.8702 51.7899 43.9852Z" fill="#F4F4F6"/>
<path d="M55.5937 47.1292C55.7319 47.1145 55.868 47.0886 56.0024 47.0513L56.5954 42.7895C56.4836 42.7746 56.3622 42.7613 56.2318 42.7504C56.1012 42.7392 55.9688 42.7335 55.8345 42.7335C55.036 42.7335 54.4036 42.9769 53.9375 43.4628C53.4713 43.9484 53.2381 44.5475 53.2381 45.2596C53.2381 45.8605 53.4132 46.326 53.7641 46.6562C54.1146 46.9863 54.5996 47.1513 55.2189 47.1513C55.331 47.1513 55.4556 47.1441 55.5937 47.1292ZM57.4797 39.8516L56.4278 47.4185L56.0472 47.4855C55.8978 47.5148 55.7654 47.5352 55.6498 47.5464C55.5342 47.5576 55.3793 47.5631 55.1854 47.5631C54.3944 47.5631 53.7881 47.3573 53.3667 46.9455C52.9451 46.5338 52.7344 45.9792 52.7344 45.282C52.7344 44.4214 53.0254 43.7148 53.6074 43.1622C54.1892 42.6096 54.9169 42.3332 55.7897 42.3332C55.8868 42.3332 56.0209 42.3369 56.1925 42.3441C56.3642 42.3516 56.5171 42.3628 56.6515 42.3774L56.9985 39.8516H57.4797Z" fill="#F4F4F6"/>
<path d="M62.6743 39.8516L61.5776 47.7746C61.4582 48.6053 61.2475 49.184 60.9452 49.5105C60.643 49.8369 60.2271 50.0001 59.6973 50.0001C59.4959 50.0001 59.302 49.9777 59.1153 49.9335L58.9922 49.4214C59.1115 49.451 59.2162 49.4734 59.3058 49.4881C59.3951 49.503 59.5034 49.5105 59.63 49.5105C60.0407 49.5105 60.356 49.3863 60.5759 49.1378C60.7958 48.8889 60.9507 48.4312 61.0403 47.7634L62.1371 39.8516H62.6743Z" fill="#F4F4F6"/>
<path d="M64.3284 42.4443L63.881 45.7047C63.8657 45.8311 63.8547 45.9274 63.8472 45.9941C63.84 46.061 63.8362 46.1239 63.8362 46.1831C63.8362 46.5099 63.9087 46.7507 64.0544 46.9067C64.1998 47.0624 64.4029 47.14 64.6645 47.14C64.9402 47.14 65.2312 47.0532 65.5372 46.8785C65.843 46.7047 66.1863 46.4096 66.567 45.9941L67.0481 42.4443H67.5293L66.8467 47.4406H66.3652L66.4886 46.4946C66.16 46.8435 65.8375 47.1032 65.5205 47.2737C65.2032 47.4443 64.8694 47.5297 64.5188 47.5297C64.1307 47.5297 63.8379 47.4093 63.6403 47.1679C63.4426 46.9271 63.3438 46.6101 63.3438 46.2168C63.3438 46.1573 63.3492 46.0794 63.3605 45.9828C63.3718 45.8866 63.3845 45.7863 63.3998 45.6826L63.8472 42.4443H64.3284Z" fill="#F4F4F6"/>
<path d="M71.4683 42.7891L71.4123 43.2675C71.1285 43.0747 70.8788 42.9411 70.6623 42.8667C70.4459 42.7925 70.2184 42.7558 69.9797 42.7558C69.6812 42.7558 69.4407 42.8296 69.2581 42.9782C69.0749 43.1267 68.9838 43.3118 68.9838 43.5345C68.9838 43.8535 69.226 44.1652 69.7112 44.469C70.1962 44.7736 70.5655 45.0589 70.819 45.3262C71.0727 45.5931 71.1996 45.9083 71.1996 46.2718C71.1996 46.6724 71.0597 46.9879 70.7799 47.2178C70.5002 47.4477 70.1401 47.5627 69.7 47.5627H69.6777C69.3939 47.5627 69.1124 47.5106 68.8327 47.4069C68.5529 47.3032 68.2937 47.1549 68.0547 46.9618L68.1668 46.4943C68.674 46.9247 69.1852 47.1397 69.7 47.1397C70.0358 47.1397 70.2892 47.0549 70.4609 46.8839C70.6326 46.7132 70.7184 46.5095 70.7184 46.2718C70.7184 45.8566 70.3473 45.4264 69.6049 44.981C68.8624 44.5359 68.4914 44.0615 68.4914 43.5569C68.4914 43.2006 68.6312 42.9078 68.911 42.6776C69.1907 42.4477 69.5543 42.3328 70.0022 42.3328C70.5019 42.3328 70.9906 42.4848 71.4683 42.7891Z" fill="#F4F4F6"/>
<path d="M73.8061 41.3428L73.6159 42.4442H74.9699L74.8913 42.856H73.5376L73.1009 45.46C73.0859 45.5787 73.0674 45.7252 73.0448 45.8994C73.0226 46.0735 73.0113 46.2204 73.0113 46.3388C73.0113 46.6209 73.0766 46.825 73.2073 46.9508C73.3376 47.0773 73.5113 47.1399 73.7277 47.1399C73.8991 47.1399 74.065 47.1086 74.2257 47.0454C74.3861 46.9827 74.5335 46.9066 74.6679 46.8172L74.6118 47.2847C74.4476 47.3813 74.291 47.4517 74.1416 47.4962C73.9925 47.5408 73.8321 47.5629 73.6604 47.5629C73.3471 47.5629 73.0804 47.4701 72.8602 47.2847C72.6402 47.0994 72.5301 46.8028 72.5301 46.3948C72.5301 46.2908 72.5377 46.1609 72.5524 46.0051C72.5674 45.8491 72.5934 45.6675 72.631 45.46L73.0561 42.856H72.0938L72.1608 42.4442H73.1347L73.3249 41.3428H73.8061Z" fill="#F4F4F6"/>
<path d="M76.7083 40.2852L76.5964 41.1421H76.104L76.2158 40.2852H76.7083ZM76.4063 42.4441L75.7234 47.4403H75.2422L75.9361 42.4441H76.4063Z" fill="#F4F4F6"/>
<path d="M81.0731 42.4333L81.0058 42.8669C80.8567 42.8298 80.7206 42.8022 80.5974 42.7836C80.4743 42.7652 80.3379 42.756 80.1888 42.756C79.4799 42.756 78.8924 43.0083 78.4262 43.5123C77.9598 44.0169 77.7268 44.6252 77.7268 45.3373C77.7268 45.8643 77.8705 46.2945 78.1577 46.6281C78.4447 46.962 78.8421 47.129 79.3496 47.129C79.551 47.129 79.7654 47.0994 79.9932 47.0399C80.2206 46.9807 80.4538 46.8767 80.6925 46.7284L80.6252 47.2402C80.1926 47.4554 79.7336 47.5629 79.249 47.5629C78.6444 47.5629 78.1577 47.3551 77.7884 46.9399C77.419 46.5244 77.2344 45.979 77.2344 45.304C77.2344 44.4882 77.5104 43.7867 78.0626 43.2008C78.6146 42.6149 79.3345 42.3218 80.2223 42.3218C80.3567 42.3218 80.5003 42.333 80.6532 42.3551C80.8061 42.3772 80.946 42.4034 81.0731 42.4333Z" fill="#F4F4F6"/>
<path d="M85.018 44.3916C85.018 43.8798 84.9079 43.4752 84.6876 43.1784C84.4674 42.8818 84.1518 42.7333 83.742 42.7333C83.3611 42.7333 83.0181 42.8781 82.7121 43.1675C82.406 43.4568 82.1976 43.8649 82.0855 44.3916H85.018ZM85.4766 44.7586H82.0072C81.9997 44.8255 81.9942 44.8905 81.9904 44.9534C81.9864 45.0166 81.9846 45.0965 81.9846 45.1928C81.9846 45.8232 82.132 46.3074 82.4271 46.6451C82.7216 46.9827 83.1077 47.1511 83.5854 47.1511C83.8467 47.1511 84.1019 47.1048 84.3518 47.012C84.6018 46.9195 84.8683 46.7657 85.1521 46.5505L85.0963 47.0511C84.857 47.2221 84.6131 47.3499 84.3631 47.435C84.1131 47.5203 83.8426 47.5629 83.5519 47.5629C82.9103 47.5629 82.406 47.3479 82.0407 46.9175C81.6751 46.4873 81.4922 45.9086 81.4922 45.1815C81.4922 44.4025 81.7107 43.7313 82.1471 43.1675C82.5834 42.6037 83.1224 42.3218 83.7643 42.3218C84.279 42.3218 84.6966 42.5091 85.018 42.8838C85.3385 43.2586 85.4989 43.8057 85.4989 44.5252C85.4989 44.6439 85.4914 44.7215 85.4766 44.7586Z" fill="#F4F4F6"/>
<path d="M93.5717 39.8957L93.5047 40.3408C93.3327 40.2518 93.1559 40.1888 92.9729 40.1518C92.79 40.1147 92.6128 40.096 92.4412 40.096C91.5462 40.096 91.0274 40.6153 90.8861 41.6541L90.7627 42.444H91.9938L91.9265 42.8558H90.7066L89.8003 49.6104H89.3191L90.2254 42.8558H89.2969L89.3639 42.444H90.2928L90.4159 41.6204C90.5052 40.99 90.7179 40.5058 91.0537 40.1684C91.3895 39.8308 91.8519 39.6621 92.4412 39.6621C92.8368 39.6621 93.2137 39.7397 93.5717 39.8957Z" fill="#F4F4F6"/>
<path d="M95.0118 46.3778C95.3511 45.8698 95.521 45.2189 95.521 44.4249C95.521 43.8982 95.4017 43.4867 95.163 43.1896C94.924 42.893 94.6145 42.7448 94.2341 42.7448C93.6743 42.7448 93.2284 43.0175 92.8966 43.5626C92.5643 44.108 92.3984 44.7551 92.3984 45.5043C92.3984 45.9939 92.514 46.389 92.7455 46.6893C92.9767 46.9899 93.2827 47.1399 93.6631 47.1399C94.2229 47.1399 94.672 46.8862 95.0118 46.3778ZM95.3644 46.6841C94.9315 47.2701 94.3607 47.5629 93.6521 47.5629C93.1148 47.5629 92.6894 47.3666 92.3762 46.9732C92.0629 46.5801 91.9062 46.0793 91.9062 45.4709C91.9062 44.5215 92.1244 43.7591 92.5608 43.1841C92.9972 42.6094 93.5697 42.3218 94.2786 42.3218C94.8009 42.3218 95.2205 42.5149 95.5375 42.9005C95.8548 43.2861 96.0135 43.8017 96.0135 44.4471C96.0135 45.3525 95.797 46.0976 95.3644 46.6841Z" fill="#F4F4F6"/>
<path d="M100.015 42.4774L99.8475 42.9558C99.7056 42.8817 99.564 42.8446 99.4221 42.8446C99.2057 42.8446 98.982 42.93 98.7508 43.1007C98.5193 43.2714 98.3031 43.4866 98.1017 43.7461L97.6988 44.28L97.2624 47.4403H96.7812L97.4748 42.4441H97.956L97.7771 43.6791C98.1575 43.1823 98.4783 42.8375 98.7395 42.6443C99.0005 42.4515 99.2617 42.355 99.523 42.355C99.6126 42.355 99.7001 42.3662 99.786 42.3883C99.8715 42.4104 99.9484 42.4403 100.015 42.4774Z" fill="#F4F4F6"/>
<path d="M104.269 44.3249H106.765L105.948 40.53L104.269 44.3249ZM106.306 39.7734L107.929 47.4404H107.425L106.843 44.7585H104.079L102.892 47.4404H102.355L105.802 39.7734H106.306Z" fill="#F4F4F6"/>
<path d="M110.401 39.8516L109.405 46.9622H112.695L112.64 47.4407H108.812L109.864 39.8516H110.401Z" fill="#F4F4F6"/>
<path d="M115.159 39.8516L114.163 46.9622H117.453L117.398 47.4407H113.57L114.622 39.8516H115.159Z" fill="#F4F4F6"/>
<path d="M127.009 39.8181L126.919 40.2966C126.68 40.267 126.531 40.2503 126.472 40.2466C126.412 40.2428 126.322 40.2411 126.203 40.2411C124.972 40.2411 123.94 40.6454 123.108 41.4538C122.276 42.2627 121.861 43.2308 121.861 44.3584C121.861 45.1224 122.081 45.7621 122.521 46.2776C122.961 46.7934 123.528 47.0512 124.222 47.0512C124.931 47.0512 125.688 46.7917 126.494 46.2722L126.415 46.8733C126.065 47.0808 125.696 47.2443 125.308 47.3627C124.92 47.4814 124.55 47.5408 124.2 47.5408C123.342 47.5408 122.644 47.2365 122.107 46.6282C121.57 46.0201 121.301 45.2707 121.301 44.3805C121.301 43.075 121.781 41.977 122.739 41.0868C123.698 40.1963 124.849 39.7515 126.192 39.7515C126.475 39.7515 126.747 39.7736 127.009 39.8181Z" fill="#F4F4F6"/>
<path d="M128.791 39.8516L128.299 43.3792C128.955 42.6743 129.626 42.322 130.313 42.322C130.641 42.322 130.913 42.4406 131.13 42.678C131.347 42.9154 131.455 43.2381 131.455 43.6461C131.455 43.7427 131.447 43.8593 131.432 43.9967C131.417 44.134 131.402 44.2432 131.387 44.3251L130.951 47.4407H130.47L130.917 44.236C130.932 44.1544 130.945 44.0562 130.957 43.9412C130.968 43.826 130.973 43.7389 130.973 43.6794C130.973 43.3455 130.893 43.103 130.733 42.9507C130.572 42.7987 130.373 42.7225 130.134 42.7225C129.85 42.7225 129.561 42.8099 129.267 42.9843C128.972 43.1585 128.627 43.4608 128.231 43.8909L127.739 47.4407H127.258L128.31 39.8516H128.791Z" fill="#F4F4F6"/>
<path d="M133.802 40.2852L133.69 41.1421H133.198L133.31 40.2852H133.802ZM133.5 42.4441L132.817 47.4403H132.336L133.03 42.4441H133.5Z" fill="#F4F4F6"/>
<path d="M135.784 39.8516L134.732 47.4407H134.262L135.302 39.8516H135.784Z" fill="#F4F4F6"/>
<path d="M139.137 47.1292C139.275 47.1145 139.411 47.0886 139.545 47.0513L140.138 42.7895C140.027 42.7746 139.905 42.7613 139.775 42.7504C139.644 42.7392 139.512 42.7335 139.377 42.7335C138.579 42.7335 137.946 42.9769 137.48 43.4628C137.014 43.9484 136.781 44.5475 136.781 45.2596C136.781 45.8605 136.956 46.326 137.307 46.6562C137.657 46.9863 138.142 47.1513 138.762 47.1513C138.873 47.1513 138.999 47.1441 139.137 47.1292ZM141.022 39.8516L139.97 47.4185L139.59 47.4855C139.44 47.5148 139.308 47.5352 139.192 47.5464C139.077 47.5576 138.922 47.5631 138.728 47.5631C137.937 47.5631 137.331 47.3573 136.909 46.9455C136.488 46.5338 136.277 45.9792 136.277 45.282C136.277 44.4214 136.568 43.7148 137.15 43.1622C137.732 42.6096 138.46 42.3332 139.332 42.3332C139.429 42.3332 139.564 42.3369 139.736 42.3441C139.907 42.3516 140.06 42.3628 140.194 42.3774L140.541 39.8516H141.022Z" fill="#F4F4F6"/>
<path d="M144.594 42.4774L144.426 42.9558C144.284 42.8817 144.142 42.8446 144.001 42.8446C143.784 42.8446 143.56 42.93 143.329 43.1007C143.098 43.2714 142.882 43.4866 142.68 43.7461L142.277 44.28L141.841 47.4403H141.359L142.053 42.4441H142.534L142.355 43.6791C142.736 43.1823 143.056 42.8375 143.318 42.6443C143.579 42.4515 143.84 42.355 144.101 42.355C144.191 42.355 144.279 42.3662 144.364 42.3883C144.45 42.4104 144.527 42.4403 144.594 42.4774Z" fill="#F4F4F6"/>
<path d="M147.873 44.3916C147.873 43.8798 147.763 43.4752 147.543 43.1784C147.323 42.8818 147.007 42.7333 146.597 42.7333C146.217 42.7333 145.873 42.8781 145.568 43.1675C145.261 43.4568 145.053 43.8649 144.941 44.3916H147.873ZM148.332 44.7586H144.862C144.855 44.8255 144.849 44.8905 144.846 44.9534C144.842 45.0166 144.84 45.0965 144.84 45.1928C144.84 45.8232 144.987 46.3074 145.282 46.6451C145.577 46.9827 145.963 47.1511 146.441 47.1511C146.702 47.1511 146.957 47.1048 147.207 47.012C147.457 46.9195 147.724 46.7657 148.007 46.5505L147.951 47.0511C147.712 47.2221 147.468 47.3499 147.218 47.435C146.968 47.5203 146.698 47.5629 146.407 47.5629C145.765 47.5629 145.261 47.3479 144.896 46.9175C144.531 46.4873 144.348 45.9086 144.348 45.1815C144.348 44.4025 144.566 43.7313 145.002 43.1675C145.439 42.6037 145.978 42.3218 146.619 42.3218C147.134 42.3218 147.552 42.5091 147.873 42.8838C148.193 43.2586 148.354 43.8057 148.354 44.5252C148.354 44.6439 148.347 44.7215 148.332 44.7586Z" fill="#F4F4F6"/>
<path d="M153.239 43.9852C153.228 44.1004 153.215 44.2096 153.2 44.3133L152.752 47.4403H152.271L152.719 44.3133C152.734 44.2096 152.747 44.0967 152.758 43.9742C152.769 43.8518 152.775 43.7682 152.775 43.7239C152.775 43.3975 152.702 43.1544 152.556 42.9949C152.411 42.8354 152.208 42.7558 151.947 42.7558C151.349 42.7558 150.712 43.1415 150.033 43.913L149.541 47.4403H149.07L149.753 42.4441H150.234L150.1 43.4012C150.749 42.7038 151.406 42.355 152.07 42.355C152.45 42.355 152.743 42.4737 152.948 42.711C153.154 42.9484 153.256 43.2826 153.256 43.7127C153.256 43.7794 153.25 43.8702 153.239 43.9852Z" fill="#F4F4F6"/>
<path d="M157.989 2.36099C158.098 2.36099 158.187 2.33829 158.255 2.29231C158.323 2.24634 158.357 2.17593 158.357 2.08111C158.357 1.90295 158.238 1.81386 158.002 1.81386H157.746V2.36099H157.989ZM157.399 1.5768H158.136C158.327 1.5768 158.474 1.6176 158.578 1.69978C158.682 1.78139 158.734 1.89547 158.734 2.04231C158.734 2.163 158.691 2.26473 158.604 2.34806C158.517 2.43139 158.403 2.48341 158.261 2.50323C158.334 2.52651 158.392 2.55955 158.437 2.60266C158.482 2.64576 158.529 2.70467 158.578 2.7791L158.908 3.27938H158.504L158.248 2.85237C158.176 2.73484 158.118 2.663 158.073 2.63685C158.028 2.61099 157.965 2.59835 157.884 2.59835H157.746V3.27938H157.399V1.5768ZM159.033 3.39576C159.299 3.13139 159.432 2.81099 159.432 2.43427C159.432 2.06386 159.298 1.74576 159.031 1.47967C158.763 1.21386 158.445 1.08082 158.075 1.08082C157.7 1.08082 157.377 1.21473 157.109 1.48197C156.839 1.74892 156.705 2.06818 156.705 2.43887C156.705 2.81243 156.84 3.13139 157.111 3.39576C157.381 3.66013 157.702 3.79231 158.075 3.79231C158.448 3.79231 158.767 3.66013 159.033 3.39576ZM159.152 1.35668C159.457 1.65582 159.61 2.01645 159.61 2.43887C159.61 2.85553 159.46 3.21387 159.159 3.51415C158.858 3.81444 158.497 3.96444 158.075 3.96444C157.647 3.96444 157.282 3.81387 156.98 3.51185C156.678 3.21013 156.527 2.85237 156.527 2.43887C156.527 2.0222 156.678 1.663 156.98 1.36128C157.282 1.05955 157.646 0.908691 158.071 0.908691C158.487 0.908691 158.847 1.05812 159.152 1.35668Z" fill="#F4F4F6"/>
</g>
<defs>
<clipPath id="clip0_413_2579">
<rect width="160" height="50" fill="white"/>
</clipPath>
</defs>
</svg>
