<svg width="60" height="58" viewBox="0 0 60 58" fill="none" xmlns="http://www.w3.org/2000/svg">
<g clip-path="url(#clip0_413_2621)">
<path d="M26.064 32.8491C24.0417 35.0019 22.1924 38.0828 21.8085 41.0687C21.6479 42.3178 21.7048 42.4633 21.7953 43.6472C21.9838 46.1142 23.5168 48.7997 24.9057 50.6799C25.4436 51.4083 26.0723 52.2212 26.7222 52.9107C27.1055 53.3171 28.4306 54.6995 28.7797 54.9304C29.2021 55.0479 28.8777 54.9826 28.9982 54.8719L28.9286 54.563C28.9258 54.3517 28.7415 53.9015 28.6521 53.6574C27.8232 51.3912 28.3733 49.0284 29.282 46.9608C29.7552 45.8841 30.2273 45.0495 30.7363 44.1127C33.0136 39.9199 37.7469 36.971 39.3669 32.5837C41.0446 28.0402 40.7273 22.288 37.5313 18.468C37.3056 18.1982 36.872 17.906 36.7682 17.5942L48.2041 17.5817L48.2136 15.5753C47.7066 15.4383 33.7694 15.5041 33.1423 15.5289C33.4926 18.5289 34.1614 19.0551 33.516 22.4094C32.6283 27.0219 29.1751 29.5368 26.064 32.8491Z" fill="#F4F4F6"/>
<path d="M11.293 15.6L11.3055 17.58L28.6685 17.5981C29.0424 23.4724 18.7742 26.884 18.0413 34.452C17.7321 37.6439 18.185 40.6074 20.2442 43.1464L20.9212 43.915C20.9991 43.9942 20.9549 43.9391 21.0186 44.017C21.1406 44.1664 21.075 44.073 21.1033 44.1513L21.2407 44.1456C21.1807 43.9646 21.1253 43.8894 21.0637 43.6914L20.6521 42.139C20.0692 38.5512 21.4497 34.9828 23.5929 32.2663C30.116 23.9991 30.7785 26.9269 30.7785 12.9594C30.7785 8.70137 30.8204 4.42341 30.778 0.167969H28.7428C28.6681 2.69363 28.7353 5.3196 28.7353 7.85635C28.7353 7.95801 28.8105 15.3603 28.6721 15.4862C28.3977 15.7361 12.0461 15.3866 11.293 15.6Z" fill="#F4F4F6"/>
<path d="M27.0214 56.3218C27.5922 56.2741 28.4651 56.637 28.9475 56.6101L28.7109 56.4542C28.6925 56.4431 28.672 56.4254 28.6571 56.4158C28.6416 56.4059 28.6206 56.3883 28.6021 56.3752C24.9787 55.0093 19.1551 54.0899 14.7537 54.0686C12.1377 54.0559 9.63881 54.2166 7.15747 54.5646C6.09828 54.7132 1.25865 55.6092 0.582031 56.0288C0.66726 56.148 2.67057 57.4582 2.966 57.6161C3.29216 57.7904 3.94812 57.3608 4.33017 57.209C4.80839 57.019 5.23367 56.8871 5.76292 56.7065C6.70251 56.3861 7.82749 56.0876 8.88287 55.8957C12.807 55.1824 15.9863 55.1778 20.0162 55.3956C21.9371 55.4995 24.2797 55.8466 26.2353 56.1267C26.4023 56.1506 26.4733 56.1772 26.6154 56.2063L27.0214 56.3218Z" fill="#F4F4F6"/>
<path d="M30.4962 56.4902C30.4918 56.623 30.4059 56.5483 30.5923 56.6065C31.052 56.6218 31.7494 56.2879 32.2547 56.389C32.3705 56.2824 32.1577 56.3723 32.4403 56.2751C32.5383 56.2413 32.6345 56.2409 32.7406 56.2253C33.7105 56.0813 35.9208 55.6274 36.6652 55.7106C36.6758 55.7004 36.6951 55.6912 36.7034 55.6878L37.039 55.6185C37.873 55.546 38.9102 55.4002 39.7468 55.3852C40.8893 55.3645 41.7644 55.2656 42.9319 55.2653C45.0161 55.2644 47.3499 55.3494 49.248 55.6755C51.2261 56.0153 52.859 56.3523 54.6191 57.0005C56.6443 57.7462 56.0862 57.8904 56.9456 57.3498L58.8229 56.1337C58.8986 56.067 58.8708 56.0907 58.9163 56.0286C58.2803 55.6518 53.2141 54.641 52.2096 54.548C50.9749 54.4337 49.7052 54.2074 48.471 54.1779C44.4778 54.0822 40.9662 53.9662 36.9405 54.826C34.9858 55.2436 33.864 55.4524 31.9444 56.0015C31.5238 56.1217 30.8178 56.4373 30.4962 56.4902Z" fill="#F4F4F6"/>
<path d="M5.23319 50.2584L5.19744 50.2147C5.61855 50.3318 5.4309 50.4341 5.95547 50.4262L8.50989 50.3149C9.57429 50.2311 10.7356 50.3149 11.8428 50.3529C13.1824 50.3988 15.7376 50.763 17.1171 51.0526C17.4084 51.1138 17.5896 51.1597 17.8668 51.2107C20.241 51.6472 23.3004 52.8769 25.452 53.9585L27.6582 55.2323L27.8892 55.2552L27.7967 54.9983C27.264 54.2486 23.6351 52.1896 22.3407 51.6281C22.1572 51.5484 20.3934 50.8438 20.2303 50.6942C19.9492 50.6998 18.9794 50.326 18.6543 50.2229C15.9426 49.3629 12.6364 48.8921 9.83588 48.8863C9.14346 48.885 8.45105 48.8853 7.75863 48.8937C7.09191 48.9017 6.46892 49.0187 5.89193 49.0076C5.96432 48.7226 6.25923 48.5735 6.50936 48.3361L11.0582 44.0187C11.0963 43.7985 11.1032 43.9107 10.9905 43.877C9.59182 45.0317 7.22504 46.6453 5.64337 47.8944C5.39428 48.0911 4.03895 48.9641 3.91797 49.293L4.92578 49.9645C5.17904 50.1179 5.14189 50.0979 5.23319 50.2584Z" fill="#F4F4F6"/>
<path d="M31.7874 55.4843C31.5713 55.7281 31.5828 55.6629 31.2609 55.8587L30.7695 56.2176C31.0421 56.1577 31.6772 55.8082 31.9971 55.6735C32.4354 55.4888 32.8131 55.3078 33.2313 55.1393C35.2984 54.3057 39.6835 53.183 41.9664 53.0537C45.3228 52.8635 45.3341 52.7596 48.8883 52.9367C50.3082 53.0074 52.1827 53.3107 53.6542 53.5439C54.1799 53.6273 54.7333 53.8236 55.3068 53.7952C55.3759 53.6938 55.5979 53.4949 55.8005 53.511C56.0067 53.2254 56.3039 53.1127 56.6757 52.864C56.8383 52.7552 57.3919 52.4765 57.4519 52.2866C56.9545 52.02 51.5026 51.6045 50.5519 51.5919C49.2757 51.5748 48.0195 51.57 46.7437 51.5987C44.458 51.65 42.2125 52.0093 39.9933 52.4519C38.9509 52.6598 37.9624 52.922 36.9777 53.2411C36.137 53.5137 32.1768 54.954 31.7874 55.4843Z" fill="#F4F4F6"/>
<path d="M2.8345 52.9349C2.99906 52.9564 3.02215 52.9762 3.16448 53.0706C3.16952 53.074 3.27262 53.154 3.27297 53.1541C3.3575 53.2244 3.34917 53.2265 3.35942 53.2375C3.85065 53.4359 4.08811 53.883 4.69391 53.7815C6.62951 53.4569 7.36463 53.2026 9.62987 53.039C12.0821 52.8619 14.3468 52.7011 16.8816 52.9996C20.5264 53.4288 24.2192 54.1158 27.4725 55.6445C27.7488 55.7743 28.5815 56.2023 28.7672 56.2244C28.9602 56.1388 28.7606 56.1468 28.1383 55.8159C28.1241 55.8084 28.1066 55.799 28.0925 55.7914L27.5364 55.4112C27.5251 55.3996 27.5081 55.3789 27.4938 55.3627C27.1081 54.8713 23.231 53.4439 22.2583 53.1553C17.5304 51.752 13.8993 51.5361 8.86802 51.5927C7.79268 51.6048 2.92112 52.0115 2.07422 52.2699C2.17125 52.5229 2.38545 52.5433 2.64877 52.7471C2.85256 52.9046 2.72011 52.7755 2.8345 52.9349Z" fill="#F4F4F6"/>
<path d="M37.5043 51.4298L35.0905 52.6777C34.7336 52.8788 33.0015 54.0218 32.8419 54.032C32.7189 54.2408 31.1641 55.3864 30.8891 55.6571C30.889 55.6574 30.8487 55.8086 30.8242 55.8381C31.2094 55.6271 31.1677 55.4732 31.6692 55.3333L34.0436 53.9539C38.4089 51.5645 44.1832 50.4113 49.303 50.3361C50.3603 50.3206 52.0817 50.2639 53.0753 50.407C54.0222 50.5432 54.0275 50.3248 55.0749 49.6502C55.7087 49.2422 55.4808 49.4692 55.5547 49.2161C52.4681 48.7373 48.7916 48.7914 45.7064 49.1588C45.3681 49.199 44.93 49.3014 44.621 49.3621C42.4346 49.7923 41.572 49.9016 39.383 50.7054C38.7925 50.9222 38.103 51.278 37.5043 51.4298Z" fill="#F4F4F6"/>
<path d="M53.1467 47.5821L53.3163 47.746C53.3194 47.7486 53.4692 47.8516 53.4758 47.8557C53.6653 47.9741 53.6568 47.8961 53.7611 48.0665C54.0776 48.1542 54.0927 48.2896 54.428 48.3427C54.323 48.1687 54.0457 47.9845 53.8811 47.855C53.586 47.6228 53.5447 47.5592 53.2387 47.4142C53.2564 47.4434 53.3354 47.6017 53.3484 47.6152L53.1467 47.5821ZM30.879 46.0244C30.7545 46.2371 30.797 46.1027 30.9283 46.1602C33.8875 44.2071 38.2517 43.3498 42.7264 43.3548C43.8995 43.3561 45.1248 43.4269 46.2045 43.5653C47.2985 43.7057 47.4282 43.9977 48.6605 44.7548C49.4943 45.2672 50.0005 45.6014 50.8955 46.1633C51.7325 46.6884 52.4834 47.1195 53.1467 47.5821L53.3484 47.6152C53.3354 47.6017 53.2564 47.4434 53.2387 47.4142L52.0767 46.5713C51.8037 46.3703 51.8023 46.3975 51.6442 46.1633C51.4855 46.1708 50.2003 45.2028 50.0857 45.0409C49.8809 44.9532 50.0535 45.0475 49.8297 44.9002C49.769 44.8601 49.653 44.7734 49.587 44.7255L47.3081 43.0206C46.9668 42.7641 46.7469 42.5106 46.2527 42.4363C44.357 42.1511 41.9611 42.2184 40.0878 42.3813C37.4117 42.6142 34.9179 43.4624 32.729 44.7054C32.3239 44.9355 31.1334 45.6962 30.879 46.0244Z" fill="#F4F4F6"/>
<path d="M30.4679 46.5578C30.5162 46.4609 30.5598 46.4624 30.679 46.3811C30.6851 46.3768 30.8042 46.2934 30.8052 46.2926C30.9012 46.212 30.8536 46.2497 30.9255 46.1602C30.7943 46.1027 30.7518 46.2371 30.8762 46.0244C30.4995 46.1552 30.6073 46.1899 30.3348 46.435C30.3017 46.7055 30.2963 46.4642 30.4679 46.5578Z" fill="#F4F4F6"/>
<path d="M10.9922 43.8766C11.1047 43.9104 11.0979 43.7982 11.0599 44.0184C11.1196 43.995 11.2066 43.9773 11.2423 43.9616C11.3572 43.7618 11.46 43.7264 11.577 43.5034C11.4371 43.5346 11.3826 43.5525 11.2659 43.6131C11.0144 43.7434 11.0533 43.7746 10.9922 43.8766Z" fill="#F4F4F6"/>
</g>
<defs>
<clipPath id="clip0_413_2621">
<rect width="60" height="58" fill="white"/>
</clipPath>
</defs>
</svg>
