<svg width="102" height="60" viewBox="0 0 102 60" fill="none" xmlns="http://www.w3.org/2000/svg">
<path fill-rule="evenodd" clip-rule="evenodd" d="M63.026 25.156H58.6655C55.9013 25.1408 56.1512 22.7686 56.2073 20.8323C56.2277 20.1074 56.4572 19.56 56.8091 19.1393C57.9311 17.8011 60.731 18.1813 61.0319 20.2798C61.0829 20.6092 61.0523 21.0604 61.0574 21.405C61.0574 21.9778 61.0217 21.9677 60.8075 22.3022C59.7722 22.3022 58.1912 22.1045 57.4415 22.4594C57.4415 23.833 57.7373 23.8888 58.5584 24.2081L58.6706 24.2588H62.8577C62.8526 23.3413 62.72 19.0936 62.9393 18.6324C63.1331 18.46 63.0872 18.4752 63.4289 18.46C64.3316 18.4144 64.2704 18.8757 64.8722 20.295C65.015 20.6244 65.066 20.9793 65.321 21.1567L66.086 19.3927C66.188 19.1646 66.3359 18.6983 66.4991 18.5766C66.7337 18.3992 67.3661 18.4347 67.616 18.5462C67.7945 18.9264 67.7945 24.6998 67.616 25.0749C67.5752 25.1154 66.8306 25.3283 66.6215 24.9989C66.4838 24.7809 66.5501 21.7142 66.5501 21.3189L66.2696 21.8562C65.8667 22.8395 65.3465 24.2487 64.556 22.4036C64.4387 22.1299 64.2092 21.4709 64.0052 21.3189C64.0052 25.4855 64.352 25.1611 63.026 25.156ZM90.8363 22.0589H87.6386C87.6386 23.61 87.5519 24.0256 86.7155 24.8113C85.7822 25.6933 83.5994 25.4703 82.9721 23.9243C82.6508 23.1437 82.7324 18.6932 82.8803 18.5462C83.1506 18.4246 83.5892 18.4246 83.8646 18.5462C84.2675 18.9466 83.5586 22.9054 84.2675 23.7722C84.5378 24.1017 85.0988 24.3348 85.6751 24.1017C86.6594 23.7012 86.4044 22.4188 86.4044 21.0756C86.4044 20.4521 86.4095 19.8236 86.4044 19.195C86.3942 18.5209 86.4554 18.308 87.557 18.5462C87.6233 19.3724 87.6386 20.2189 87.6386 21.1567H89.7704C89.3216 20.224 89.6123 18.9973 90.872 18.5006C92.0093 18.0495 93.5903 18.602 93.7892 19.4434L93.677 19.5752C93.5189 19.7323 93.2945 19.9249 93.0548 19.9249C92.7233 19.9249 92.6468 19.636 92.249 19.5093C91.5656 19.2913 90.7037 19.6056 90.7496 20.3406C90.821 21.5166 93.1313 20.7309 93.9575 22.0539C94.4828 22.9054 94.3502 24.7758 92.6927 25.2016C91.9532 25.3942 91.2035 25.3385 90.617 25.0495C88.7708 24.1219 89.6123 23.1994 90.1019 23.1994C90.566 23.3261 90.7904 23.8888 91.2545 24.0865C92.657 24.6744 93.6872 23.0828 92.6162 22.4137C92.3918 22.2718 91.0505 22.0741 90.8363 22.0589ZM77.5457 25.156H74.1797C72.8435 25.1611 73.2005 25.4804 73.1954 21.3239C72.6599 21.9373 72.6038 23.24 71.9612 23.2805C71.3237 23.316 71.2268 22.2262 70.7882 21.5115L70.6505 21.3189C70.6556 22.0741 70.7831 24.6238 70.574 25.0749C70.3088 25.1965 69.8498 25.1965 69.5846 25.0749C69.3398 24.5477 69.5132 20.2037 69.4979 19.195C69.4928 18.5411 69.5591 18.4296 70.2425 18.455C70.9412 18.4854 71.0483 19.1849 71.4614 20.1936C71.6042 20.5332 71.7317 20.9742 71.9663 21.2428L72.7262 19.3876C72.8588 19.0835 72.9353 18.678 73.1903 18.5411C73.3178 18.4752 73.5371 18.4448 73.7717 18.46C73.9094 18.4651 73.94 18.46 74.0624 18.5006C74.2358 18.5665 74.2766 18.5716 74.2868 18.6881L74.348 24.2588H76.4798C76.388 23.8634 75.5975 22.581 76.7858 21.2986C77.7599 20.2443 79.0145 20.665 79.7591 20.8323C79.7591 20.1885 79.5398 19.6766 78.8921 19.489C78.0659 19.2508 77.7344 19.7729 77.051 19.7729C76.8572 19.4789 76.7195 19.3724 76.7246 18.8757C77.7854 18.161 79.8713 17.9379 80.723 19.6309C81.0902 20.371 80.9933 21.1769 80.9933 22.2211C80.9933 22.8953 81.1259 24.6187 80.9117 25.0749C80.6516 25.1915 80.3762 25.1915 80.06 25.0952C79.805 25.0141 80.3966 24.8671 79.3154 25.2067C78.4229 25.4855 78.2495 25.2117 77.5457 25.156ZM52.6016 14.9625V28.0909C52.6016 28.8917 53.6267 28.6636 54.8966 28.6636H95.4314C95.9261 28.6636 96.4208 28.6586 96.9104 28.6636C97.4357 28.6687 97.8947 28.6738 97.8947 28.172V15.2058C97.8947 14.2174 97.1144 14.4709 95.7629 14.4709H55.0598C54.1979 14.4709 52.6016 14.2428 52.6016 14.9625Z" fill="#F4F4F6"/>
<path fill-rule="evenodd" clip-rule="evenodd" d="M56.4576 41.2192C56.4576 40.5907 56.8095 40.7174 57.4419 40.7326C58.5384 40.758 58.263 41.1432 58.263 36.9817C58.263 36.4292 58.4058 36.2568 57.8601 36.2366C57.1104 36.2112 56.9472 36.4647 56.9472 35.755C56.9472 35.2532 56.9319 35.2684 57.4419 35.2684H59.9868C60.5274 35.2684 60.6447 35.1417 60.6447 35.6739C60.6447 36.561 60.4509 36.1605 59.6502 36.2416C59.1759 36.2872 59.3289 36.5356 59.3289 37.0628V40.0787C59.3289 40.7073 59.2269 40.7478 59.895 40.7377C60.5886 40.7326 61.5168 40.5349 61.068 41.6602C60.15 41.7717 57.9927 41.7109 56.9472 41.7109C56.5341 41.7109 56.4576 41.6298 56.4576 41.2192ZM73.7721 40.8137H75.9039C76.3374 40.6059 77.3472 40.8543 77.5512 40.6515C77.5614 40.6312 77.5716 40.5856 77.5716 40.5958L77.6328 36.566C77.5359 35.6688 76.011 36.9715 76.3272 35.532C76.419 35.1163 77.184 35.2684 78.1173 35.2684L79.7442 35.2836C79.9278 35.3191 80.04 35.3343 80.0247 35.8463C80.0043 36.5812 79.6269 36.0541 78.8313 36.3024C78.6885 36.3481 78.6936 36.5812 78.6885 36.7282C78.6834 36.9006 78.6936 37.1287 78.6936 37.3061L78.6885 40.1649C78.6885 40.2207 78.6936 40.3525 78.6987 40.4031C78.7038 40.4285 78.7038 40.4488 78.7089 40.469C78.7752 40.8036 79.1067 40.7377 79.5963 40.7326C79.9584 40.7276 80.1624 40.6971 80.4174 40.8137C80.5398 41.0672 80.5398 41.3713 80.4225 41.6298C79.9635 41.8326 76.8066 41.7109 75.9906 41.7109H72.7878C72.3441 41.7515 72.2166 41.8934 71.6352 41.8782C70.6815 41.8579 69.5544 41.1939 69.3402 40.4082C70.1613 39.1714 70.3908 40.6718 71.3445 40.8644C72.1095 41.0266 72.7011 40.6769 72.8847 40.175C73.461 38.5733 71.166 39.0346 70.2633 38.4314C68.4987 37.2453 70.0032 34.5841 72.2421 35.1518C72.6093 35.2431 74.0475 35.8057 73.2621 36.3937C72.7929 36.7434 72.7062 36.4849 72.4053 36.3024C71.2272 35.5827 70.1715 36.6826 70.7121 37.4075C71.2272 38.1019 72.8541 37.5697 73.6599 38.6443C74.1342 39.2779 74.1291 40.0889 73.7721 40.8137ZM67.2849 36.3329C67.7337 37.1794 67.5246 41.5183 67.5195 41.5335C67.4328 41.7667 67.1472 41.7667 66.8208 41.6805C66.4536 41.5842 66.678 41.4727 66.1884 41.6704C63.1335 42.9021 61.578 38.7304 64.1433 37.5291C65.6631 36.8144 67.0554 38.2692 66.3312 36.7891C66.1374 36.3886 65.7855 36.0946 65.2347 36.0743C64.5309 36.049 64.2504 36.3683 63.7608 36.4089C63.4446 36.0541 63.4344 36.0541 63.4293 35.5928C64.8267 34.868 66.4995 34.8325 67.2849 36.3329ZM52.6836 31.5935V45.2135C53.3874 45.7001 53.4894 45.543 54.8154 45.543H82.0596C85.0074 45.543 84.8493 45.9231 84.8493 43.4242V33.5551C84.8493 30.7875 84.9258 31.2741 82.1412 31.2741C72.696 31.2741 63.0927 31.335 53.6628 31.2691C52.9386 31.264 53.0967 31.3198 52.6836 31.5935Z" fill="#F4F4F6"/>
<path fill-rule="evenodd" clip-rule="evenodd" d="M63.9254 39.8354C64.0274 40.3879 64.6496 41.0418 65.4656 40.8796C66.0062 40.7731 66.5825 40.1496 66.455 39.364C66.1694 37.6203 63.6092 38.1728 63.9254 39.8354Z" fill="#F4F4F6"/>
<path fill-rule="evenodd" clip-rule="evenodd" d="M78.1173 21.8103C77.8521 21.9219 77.6175 22.0841 77.4747 22.3933C77.0412 23.3057 77.7603 24.4918 78.9792 24.1319C79.5402 23.9646 79.9227 23.2195 79.6983 22.5301C79.5963 22.2159 79.4127 22.008 79.1373 21.856C78.8925 21.7242 78.5865 21.6836 78.3009 21.7444L78.1734 21.785C78.1632 21.7901 78.1377 21.8002 78.1173 21.8103Z" fill="#F4F4F6"/>
<path fill-rule="evenodd" clip-rule="evenodd" d="M57.4397 20.5888C57.4397 21.4758 57.2918 21.3187 59.4083 21.3237C59.7857 21.3237 59.8724 21.2477 59.903 20.9081C59.9591 20.3454 59.5358 19.4432 58.5872 19.4483H58.5056C57.9956 19.4483 57.4397 20.0768 57.4397 20.5888Z" fill="#F4F4F6"/>
<path fill-rule="evenodd" clip-rule="evenodd" d="M58.6641 25.156H63.0246C62.7849 24.7961 62.8512 24.8164 62.8563 24.2588H58.6692L58.6641 25.156Z" fill="#F4F4F6"/>
<path fill-rule="evenodd" clip-rule="evenodd" d="M74.1797 25.156H77.5457C77.1734 24.8417 77.0663 24.9583 76.592 24.3906C76.5767 24.3754 76.5257 24.3399 76.5155 24.3044C76.5104 24.2791 76.49 24.274 76.4798 24.2588H74.348C74.3429 24.8214 74.4245 24.7961 74.1797 25.156Z" fill="#F4F4F6"/>
<path fill-rule="evenodd" clip-rule="evenodd" d="M87.6367 22.059H90.8344L90.2122 21.6991C89.9929 21.5369 89.9062 21.3595 89.7685 21.1567H87.6367V22.059Z" fill="#F4F4F6"/>
<path fill-rule="evenodd" clip-rule="evenodd" d="M72.7891 41.7107H75.9919C75.8032 41.4369 75.7216 41.1936 75.9052 40.8135H73.7734C73.2889 41.513 73.141 41.4065 72.7891 41.7107Z" fill="#F4F4F6"/>
<path fill-rule="evenodd" clip-rule="evenodd" d="M21.7453 36.3934C22.5919 36.3934 22.6735 37.9343 21.5872 37.8684C20.5876 37.8076 20.659 36.3984 21.5821 36.3934H21.7453ZM29.0281 35.5519C30.4204 35.3492 31.8382 36.0892 32.4655 36.9155C34.1791 39.1711 33.0316 42.4709 31.267 43.8142C30.3592 44.5086 29.0077 45.0408 27.3961 44.8077C24.739 44.4224 23.3569 42.5622 24.4177 39.9466C24.5656 39.5918 24.6727 39.4347 24.8104 39.1103C25.402 37.7316 24.9634 36.4948 25.0603 35.8561C25.1215 35.4607 25.1929 35.1768 25.198 34.7663C26.2843 35.5165 25.9732 35.9929 29.0281 35.5519ZM33.7303 20.7357C33.7303 21.202 34.2862 23.8834 34.4188 24.5373L35.0614 28.1818C35.0614 28.197 35.0512 28.2224 35.041 28.2376C34.9492 27.8321 33.46 24.8263 33.2254 24.2535C33.0214 23.7567 32.1391 21.7495 31.7413 21.3237C30.6142 20.1224 28.3396 21.0854 28.4824 22.9254C28.5334 23.5185 28.7221 23.9037 28.9108 24.3802L31.4404 30.848C31.5067 31.0761 31.4965 31.066 31.4302 31.1725C31.2517 30.5084 30.349 30.3665 29.5585 30.5388C28.4008 30.7923 25.7233 31.7655 25.1368 32.83C24.8869 33.271 24.9481 33.4028 24.9481 34.0262C22.7449 35.2225 21.9748 34.6649 20.6794 35.5773C19.1851 36.6215 17.6755 38.9481 17.1655 40.8134C16.2985 43.9967 17.2318 47.3167 18.9199 50.0489C19.4503 50.9004 20.1133 51.8686 20.8273 52.563C20.9854 52.7201 21.0415 52.8012 21.1741 52.9482L22.342 53.9924C23.8822 55.2444 25.2235 55.8628 27.1309 56.4863C27.9265 56.7499 28.666 56.8411 29.5993 56.9678C32.1799 57.3227 35.7907 56.4103 38.101 55.4168C40.2838 54.4841 40.7428 54.0583 42.4003 52.6796C42.7624 52.3805 42.9256 52.122 43.2265 51.7875C44.8126 50.0184 45.6643 48.366 46.2202 45.9532C46.3885 45.2132 46.618 43.6621 46.6129 42.7548C46.5823 38.061 46.3324 37.3311 44.986 33.0327C44.6137 31.8415 43.3795 26.3672 43.1143 25.1861L42.0433 20.9537C41.8495 20.4975 41.314 20.0818 41.1151 20.0818C38.6773 20.0818 39.2536 21.6227 39.3046 23.7567L39.6361 28.7242C39.478 28.4809 37.8562 21.8154 37.8001 21.5822C37.5196 20.4873 37.3156 18.8551 36.1834 18.7031C35.4184 18.6017 34.7656 18.7943 34.3678 19.0883C33.766 19.5394 33.7252 19.7625 33.7303 20.7357Z" fill="#F4F4F6"/>
<path fill-rule="evenodd" clip-rule="evenodd" d="M7.62891 43.2464C9.82701 43.2515 12.1985 42.0755 13.7489 40.8438C15.0953 39.7793 16.8191 37.0421 16.8191 35.415C13.5653 35.4252 10.1381 37.0878 8.61321 39.9821C8.18991 40.7779 7.63911 42.0451 7.62891 43.2464Z" fill="#F4F4F6"/>
<path fill-rule="evenodd" clip-rule="evenodd" d="M9.67969 32.8856C10.3427 33.2961 12.3521 33.4685 13.1324 33.5344C14.6369 33.6611 16.7534 33.0731 18.0794 32.3432C19.0433 31.811 21.017 30.2295 21.2516 29.3779C20.7926 28.9876 18.2732 28.5669 17.804 28.5669C15.3203 28.5669 13.4078 28.942 11.633 30.5032C11.0159 31.0456 9.85819 32.105 9.67969 32.8856Z" fill="#F4F4F6"/>
<path fill-rule="evenodd" clip-rule="evenodd" d="M16.3305 23.1787C16.1061 20.8166 15.1779 18.338 13.8876 17.0454C13.0767 16.2293 12.5361 15.7072 11.4345 15.1598C10.6236 14.7644 9.19047 14.2221 8.04297 14.2119C8.06847 15.8339 9.33327 18.9107 10.644 20.1881C12.6993 22.1903 13.653 22.5755 16.3305 23.1787Z" fill="#F4F4F6"/>
<path fill-rule="evenodd" clip-rule="evenodd" d="M19.9386 26.9348C20.5251 26.2506 21.0504 25.0746 21.3972 24.2179C22.3203 21.9065 22.1673 19.5799 21.1728 17.3091C20.9025 16.6958 19.8672 15.1954 19.3674 14.8608C18.3678 16.0064 17.3019 19.3772 17.4906 21.131C17.6334 22.4743 17.7915 23.3765 18.2709 24.4359C18.633 25.2418 19.296 26.5141 19.9386 26.9348Z" fill="#F4F4F6"/>
<path fill-rule="evenodd" clip-rule="evenodd" d="M21.4162 2.9541H21.1714C20.7073 3.83101 20.3299 4.77889 20.029 5.818C19.111 9.01645 19.9678 11.9462 21.9211 14.4452C22.1047 14.6834 22.1557 14.8659 22.4872 14.9419C24.1447 11.8246 25.0933 8.88973 23.2216 5.32126C22.477 3.89691 21.7375 3.42044 21.4162 2.9541Z" fill="#F4F4F6"/>
<path fill-rule="evenodd" clip-rule="evenodd" d="M4.10156 25.7894V25.9567C6.97286 27.8271 10.3695 28.5975 13.7202 27.2746C14.3985 27.0059 15.9081 26.2202 16.2498 25.7083C15.801 25.4701 15.4542 25.1913 14.9901 24.9175C14.0466 24.3549 13.1388 23.9747 12.0321 23.701C10.8438 23.407 9.55346 23.3513 8.31926 23.625C6.89636 23.9342 5.79476 24.4411 4.67276 25.2977C4.44836 25.4701 4.32596 25.6424 4.10156 25.7894Z" fill="#F4F4F6"/>
<path fill-rule="evenodd" clip-rule="evenodd" d="M22.8112 25.3027C22.8112 26.9907 23.2855 28.4251 23.9587 29.6214C24.4636 29.4896 25.5856 27.9689 25.9426 27.4418C26.4934 26.6257 27.0187 25.6322 27.2737 24.5221C27.5491 23.3259 27.5797 21.9319 27.3298 20.7256C27.0646 19.4381 26.6209 18.7031 26.0905 17.7197C25.4989 17.8769 24.0148 20.2896 23.7394 20.8421C23.4589 21.3997 23.158 22.2158 23.005 22.89L22.75 24.9783C22.75 25.399 22.8112 24.9023 22.8112 25.3027Z" fill="#F4F4F6"/>
</svg>
