<svg width="115" height="56" viewBox="0 0 115 56" fill="none" xmlns="http://www.w3.org/2000/svg">
<g clip-path="url(#clip0_413_2688)">
<path fill-rule="evenodd" clip-rule="evenodd" d="M29.2466 5.27059V6.21736C30.4066 6.21736 31.5744 6.61795 31.9348 7.59244C32.0553 7.91746 32.1258 8.29471 32.1258 8.70989V18.2803C32.1258 20.0697 31.1156 20.9718 29.1936 20.9718C28.9168 21.3584 29.0869 21.2916 29.0869 22.0187H36.7107C36.9473 22.0187 36.9242 21.5347 36.9242 21.3208C36.9242 20.7615 36.3153 21.0836 35.342 20.6567C33.8547 20.0049 33.7785 19.2061 33.7785 17.8316L33.7804 11.9482C33.7801 11.6908 33.7367 11.6325 33.7264 11.4472L33.777 7.76109C33.7729 7.49704 33.7236 7.42468 33.8852 7.31411C33.9093 7.58545 34.1134 7.97758 34.1986 8.21741C34.6788 9.57031 35.4197 11.3139 35.9583 12.7033C36.1952 13.3148 36.4261 13.901 36.6804 14.5204C37.1795 15.7367 37.6226 16.9271 38.0904 18.1368L39.2766 21.3147C39.456 21.8366 39.2035 21.7193 40.9227 21.7193C41.0947 21.7193 41.1415 21.5172 41.198 21.3789L44.0762 14.4991C45.0676 12.1953 46.0204 9.77601 47.0374 7.44832L47.141 7.24584C47.1448 7.23942 47.1532 7.22454 47.1604 7.21461V17.4826C47.1517 19.6706 47.7483 20.5745 45.3716 20.8942C45.0464 20.938 44.6698 20.9999 44.3883 21.0217V21.9685C45.3906 21.9685 46.2083 22.0187 47.2138 22.0187C47.9761 22.0187 52.2656 22.0543 52.8263 21.9822C54.2066 21.8054 54.2204 22.4695 54.0915 21.0217C53.8649 21.0039 53.5878 20.9339 53.3219 20.8937C53.0236 20.8481 52.768 20.8017 52.5377 20.7297C52.0808 20.587 51.6392 20.33 51.6392 19.7756V7.364C51.6392 6.36471 53.2895 6.21737 54.0915 6.21737C54.0965 5.99971 54.1448 6.03035 54.1448 5.66944C54.1448 5.41881 54.0968 5.44595 54.0915 5.2207H47.1604C46.7422 5.2207 46.5544 5.27059 46.1477 5.27059L45.2209 8.09282C44.3352 10.5769 43.1874 12.9349 42.1564 15.3464C42.0596 15.5733 41.9423 15.7977 41.8824 16.037C41.702 15.9135 41.6714 15.6445 41.5781 15.4243C40.9677 13.9815 40.3348 12.2341 39.7191 10.7324L37.8632 6.03736C37.7833 5.82203 37.6354 5.52415 37.617 5.3205L36.5538 5.26798C36.2576 5.24522 35.9022 5.23034 35.5121 5.22071H31.2195C30.4943 5.22071 29.9672 5.27059 29.2466 5.27059Z" fill="#F4F4F6"/>
<path fill-rule="evenodd" clip-rule="evenodd" d="M9.7381 23.8375V23.3643C9.42634 23.3643 9.37422 23.3202 9.09991 23.3126C8.86149 23.3059 8.59124 23.3115 8.35188 23.3179L-0.0328216 23.3316L-0.0390625 41.1671C1.62208 41.1735 3.16964 41.2158 4.83297 41.2158C6.50068 41.2158 8.04854 41.1703 9.70127 41.1674L9.7381 23.8375Z" fill="#F4F4F6"/>
<path fill-rule="evenodd" clip-rule="evenodd" d="M86.1901 22.3177C88.5182 22.3177 90.1338 21.9522 91.5296 20.3311C91.6944 20.1397 91.8714 19.946 92.0124 19.7359C92.1519 19.5279 92.3772 19.2306 92.4278 19.0278C92.1884 18.6937 91.8211 18.5511 91.4682 18.3299C91.0559 19.0587 90.6892 19.6186 89.8726 20.0779C88.2142 21.0103 86.1449 20.7559 85.1594 19.094C84.265 17.5853 84.3773 16.6584 84.3773 15.0403C84.3773 14.0667 84.7056 12.5906 85.2293 11.8493C85.7264 11.1458 86.6713 10.8083 87.3782 10.9363C88.907 11.2132 87.0724 12.6254 87.6447 13.8297C88.3384 15.2891 91.5044 15.2401 91.8829 13.7332C92.0293 13.1505 92.0255 12.3957 91.7178 11.8659C91.6214 11.6996 91.4635 11.5216 91.4148 11.3515C92.9864 12.1294 92.8847 12.8704 93.7603 14.4921L97.5822 21.6855C97.9127 22.3034 97.9274 22.3052 97.7923 22.5952C97.1369 23.9995 96.2326 24.6924 96.0531 25.0093C95.6346 24.7473 95.3466 24.2606 94.9418 23.9545C93.0507 22.5252 91.3081 23.8434 91.3081 24.8599C91.3081 25.643 91.3649 26.2236 92.2031 26.7146C92.7733 27.0487 93.677 27.3655 94.3829 27.1861C95.7935 26.8275 96.3636 26.5591 97.4228 25.3427C98.3662 24.2594 99.4478 22.1736 100.014 20.9365L101.705 17.3837C101.794 17.1976 101.885 17.0088 101.989 16.8014L102.557 15.6375C103.022 14.6695 103.987 12.3044 104.73 11.6879C105.109 11.3737 105.46 11.2748 106.023 11.1522C106.053 11.0314 106.069 10.9416 106.076 10.8689V10.7015C106.062 10.5798 106.023 10.4899 106.023 10.2551H100.905C100.74 10.2551 100.77 10.3128 100.738 10.4476C100.695 10.6239 100.658 10.92 100.765 11.0837C100.872 11.2474 101.227 11.2421 101.695 11.3609C101.864 11.404 102.104 11.4854 102.262 11.5782C102.969 11.9925 102.415 12.8325 102.06 13.5777C101.634 14.471 101.192 15.6174 100.763 16.4527L100.105 17.8815C99.9699 17.789 99.3689 16.5542 99.2699 16.3696C98.9853 15.8377 98.7216 15.3942 98.4345 14.8573C98.1324 14.2928 96.9594 12.1862 96.9594 11.6509C96.9594 11.4382 97.7726 11.2234 98.0844 11.2071C98.647 11.1773 98.5375 11.2123 98.4523 10.2551H90.6683V10.7534C88.951 9.90378 87.4103 9.74098 85.4274 10.0406C84.1673 10.2306 82.8585 10.7569 81.912 11.5388C80.762 12.4885 79.7902 13.8744 79.6847 15.7869C79.6585 16.259 79.6701 16.699 79.7412 17.1815C79.8061 17.6203 79.9369 18.063 80.0789 18.4609C80.3373 19.1857 80.7436 19.9507 81.2978 20.5114L82.2225 21.2417C83.2745 21.9259 84.7765 22.3177 86.1901 22.3177Z" fill="#F4F4F6"/>
<path fill-rule="evenodd" clip-rule="evenodd" d="M18 23.3143V41.1591C18.1626 41.1623 18.3701 41.1959 18.577 41.2177C19.2623 41.2907 26.1759 41.2933 26.8132 41.2241C27.0563 41.1979 27.2769 41.2752 27.2769 41.0593V23.3142C26.6615 23.3142 26.2455 23.2646 25.6239 23.2646H19.6527C19.0317 23.2646 18.6151 23.3143 18 23.3143Z" fill="#F4F4F6"/>
<path fill-rule="evenodd" clip-rule="evenodd" d="M47.1641 23.1149C46.8308 24.4535 47.381 23.8787 48.3453 24.2038C49.0125 24.4287 49.4035 25.0047 49.4035 25.657V39.1152C49.4035 39.3332 49.3548 39.5365 49.2581 39.6772C49.1536 39.8292 49.0237 39.9044 48.8349 39.9794C48.5709 40.0842 47.8675 40.1863 47.5377 40.212V41.0592C48.1528 41.0592 48.5691 41.1091 49.1901 41.1091H55.2683C55.2683 40.4203 55.5491 40.2487 54.929 40.1303C54.431 40.0349 53.6686 39.8055 53.6686 39.215V32.4858C53.6686 32.2597 54.3218 31.7085 54.5739 31.5378C55.3775 30.9934 57.1035 30.6666 57.7723 31.6898C57.9973 32.0347 58.1471 32.538 58.1471 33.0839V39.3148C58.1471 40.0565 57.3145 40.1565 56.6011 40.212V41.0592C57.2162 41.0592 57.6322 41.1091 58.2538 41.1091H64.225C64.225 40.7179 64.4366 40.2657 64.0655 40.1615C63.6189 40.0357 62.4318 40.0573 62.4097 39.0677C62.3813 37.7854 62.4886 34.6279 62.4093 33.7345C62.2967 32.4604 62.3856 31.3683 61.5377 30.3124C60.1269 28.5557 56.6348 28.5928 54.6148 30.2798L53.6686 31.0404C53.6686 28.6152 53.6552 26.1872 53.6689 23.7626C53.6745 22.787 53.5228 22.7406 52.7932 22.8447L47.1641 23.1149Z" fill="#F4F4F6"/>
<path fill-rule="evenodd" clip-rule="evenodd" d="M29.5703 32.3367C29.5703 34.2218 29.6243 35.0314 30.3767 36.7666C31.17 38.595 33.0536 40.1945 35.055 40.8664C35.779 41.1097 36.9321 41.405 37.7824 41.4567C38.8563 41.5217 38.3289 41.6177 39.5884 41.5036C39.7866 41.4855 40.083 41.4692 40.3183 41.4383C41.1793 41.3254 42.059 41.1284 42.828 40.7941C43.1557 40.6514 43.5657 40.4364 43.8441 40.2485C44.1658 40.0308 44.4501 39.8371 44.7251 39.5768C45.3367 38.9983 45.6853 38.6388 46.1615 37.9289C46.9639 36.7333 46.972 36.8681 45.6713 36.2245C45.3629 36.6548 44.853 37.4542 44.4592 37.833C44.1025 38.1761 43.9926 38.3368 43.547 38.675C42.2691 39.6439 40.4572 40.1501 38.6971 39.7043C38.2602 39.5937 37.9931 39.4624 37.6027 39.2818C36.943 38.9767 36.3787 38.4888 36.0177 37.9225C35.6189 37.2979 35.328 36.7587 35.0837 35.9549C34.3974 33.6995 34.5322 29.4378 35.6657 27.3187C36.0008 26.6923 36.3756 26.2327 36.9495 25.8275C37.9007 25.1567 38.6406 25.1091 39.7535 25.1091C40.5049 25.1091 41.3962 25.4175 41.8331 25.7067C42.4264 26.0997 42.7397 26.4486 43.1741 26.9954C43.7061 27.665 44.2058 28.7562 44.521 29.5241L44.8714 30.4922C45.2649 30.578 45.415 30.5421 45.8844 30.5421C46.0854 30.5421 46.0913 30.2264 46.0997 29.9457C46.1081 29.6534 46.0907 29.3978 46.0588 29.1827L45.9911 24.3614L44.9781 24.3115C44.4745 24.3115 44.3318 25.0867 43.8597 24.9154C43.4999 24.7844 43.1104 24.5662 42.5184 24.3681C40.8953 23.8248 38.9096 23.7416 37.1539 24.0743C35.9721 24.2986 34.7681 24.6954 33.7814 25.3078C33.2278 25.6518 32.2382 26.3004 31.8731 26.8133C31.6106 27.1824 31.3057 27.4771 30.8919 28.0895C30.7387 28.3168 30.6295 28.563 30.4944 28.8142C30.0559 29.6271 29.5703 31.1408 29.5703 32.3367Z" fill="#F4F4F6"/>
<path fill-rule="evenodd" clip-rule="evenodd" d="M-0.0742188 15.5387C-0.0742188 15.8418 -0.0208529 15.9022 -0.0208529 16.1867H9.73571L9.78907 10.3549C9.78907 8.65454 9.73571 7.11899 9.73571 5.42005C9.5984 5.35878 9.41084 5.32056 9.20238 5.32056H-0.0742188V15.5387Z" fill="#F4F4F6"/>
<path fill-rule="evenodd" clip-rule="evenodd" d="M17.998 5.4198V14.791C17.998 15.0241 17.9958 15.2575 17.9961 15.4903C17.9967 15.7911 18.0514 15.8524 18.0514 16.1369C18.7716 16.1369 19.2987 16.1865 20.0243 16.1865H27.1148C27.2378 16.1865 27.2749 16.1517 27.2749 16.0368V5.36991C26.799 5.36991 26.5334 5.32031 26.0485 5.32031H18.531C18.3229 5.32031 18.135 5.35854 17.998 5.4198Z" fill="#F4F4F6"/>
<path fill-rule="evenodd" clip-rule="evenodd" d="M79.3659 29.3956H76.9664C76.7686 29.3956 76.7923 29.6136 76.7592 30.0025C76.7464 30.1574 76.826 30.6041 76.86 30.7415H79.3659V39.1154C79.3659 39.6782 79.1528 39.8597 78.7199 40.007C77.9557 40.267 77.5746 40.0006 77.4957 40.4079C77.3762 41.0259 77.4863 41.2333 78.1729 41.1855C78.6844 41.1496 79.2408 41.1076 79.7388 41.109C80.6601 41.1122 84.6031 41.1528 85.4516 41.0667C86.1828 40.9926 86.1369 41.322 86.1369 40.3618C86.1369 39.8956 84.326 40.2568 83.8113 39.5449C83.5948 39.2455 83.5773 38.7542 83.5764 38.267C83.5757 37.9484 83.6291 37.8594 83.6332 37.5723L83.631 30.7415H87.0431L87.0965 29.9441C87.0965 29.6672 87.0431 29.6483 87.0431 29.3956H84.1643C83.8681 29.3956 83.8479 29.3457 83.5776 29.3457C83.5776 29.0283 83.6338 28.9297 83.6322 28.5991C83.6297 28.0109 83.5941 26.6638 83.6619 26.2343C83.7842 25.4518 83.7262 24.4429 84.6973 23.9624C84.7604 24.0855 84.8234 24.2393 84.8877 24.3825C85.1367 24.9383 85.2169 25.1417 85.5724 25.6864C85.9 26.1882 86.5457 26.754 87.2029 26.754C87.906 26.754 88.4365 26.7435 88.9246 26.2697C89.9763 25.2488 89.7915 22.8499 86.7223 22.8166C86.4646 22.814 86.409 22.7691 86.213 22.7869C85.4756 22.8546 85.5315 22.784 84.585 22.9605C83.8903 23.0897 82.5116 23.5014 82.0176 23.9496C81.8687 24.0849 81.8662 24.0791 81.6896 24.1911C81.1875 24.5092 80.6441 25.2712 80.3417 25.7722C79.804 26.663 79.3659 28.0278 79.3659 29.3956Z" fill="#F4F4F6"/>
<path fill-rule="evenodd" clip-rule="evenodd" d="M58.5198 14.6916C58.5198 13.5169 58.453 12.9349 59.0519 11.8495C59.8436 10.4155 61.5338 10.6235 62.0321 11.9058C62.328 12.667 62.3583 13.748 62.3583 14.6417L58.5198 14.6916ZM53.8281 16.1373C53.8281 17.7356 54.5137 19.7341 55.8163 20.7579C58.1675 22.606 62.2971 23.0077 64.833 21.4415C65.4165 21.0809 67.0324 19.8403 67.21 19.1279C67.0534 18.909 66.506 18.6062 66.2504 18.4799C65.904 18.9633 66.0622 18.7801 65.6241 19.1903C64.4004 20.3337 64.0294 20.5733 62.1451 20.5733C60.2352 20.5733 59.0213 19.3499 58.6655 17.6956C58.522 17.0301 58.5242 16.4396 58.4664 15.788C59.0996 15.788 65.5423 15.8248 66.0064 15.7594C66.995 15.6194 66.9432 16.0982 66.9432 15.0405C66.9432 13.3124 66.2928 11.9683 65.2755 11.1665C64.8395 10.8228 63.9036 10.358 63.3606 10.2154C60.4025 9.43752 57.0038 10.0415 55.0383 12.4835C54.2463 13.4679 53.8281 14.8955 53.8281 16.1373Z" fill="#F4F4F6"/>
<path fill-rule="evenodd" clip-rule="evenodd" d="M70.3546 33.7823H68.862C68.862 32.3007 69.0105 29.994 71.0477 29.994C72.0382 29.994 72.4573 31.0943 72.6093 31.824C72.6396 31.9684 72.6646 32.3004 72.6861 32.4501L72.7538 33.7324C71.8925 33.7324 71.22 33.7823 70.3546 33.7823ZM71.3679 41.5082C72.6627 41.5082 74.107 41.1266 75.2039 40.5092C75.9348 40.0981 76.6341 39.5309 77.1493 38.8884C77.3022 38.6976 77.5831 38.4213 77.6056 38.1687C77.3593 38.1074 76.9977 37.771 76.5926 37.5705C76.4868 37.7576 76.4394 37.8235 76.2865 37.9825C75.9491 38.3326 75.5381 38.8202 75.1231 39.0874C74.0183 39.7993 72.2795 39.9079 70.9628 39.3946C69.6081 38.8671 68.862 37.1256 68.862 35.7263V34.879H77.2857C77.2857 34.4084 77.4218 34.5808 77.2695 33.7476C77.0947 32.7903 77.0947 32.0387 76.3876 31.0829C76.2153 30.8504 75.9232 30.5075 75.6941 30.3354C74.3847 29.3516 72.8437 28.9971 71.1011 28.9971C70.1908 28.9971 69.0742 29.2162 68.2519 29.5234C67.1899 29.9205 66.4584 30.469 65.7291 31.2019C65.056 31.8785 64.5395 32.9694 64.3432 33.894C64.273 34.2261 64.1491 35.01 64.1991 35.3467C64.2736 35.8518 64.2206 36.1499 64.3822 36.774C64.6706 37.8851 65.2732 39.2053 66.2178 39.893C67.3063 40.6851 68.383 41.1274 69.7751 41.3524C70.0435 41.3959 70.2554 41.3912 70.5456 41.4297C70.7656 41.4589 71.1735 41.5082 71.3679 41.5082Z" fill="#F4F4F6"/>
<path fill-rule="evenodd" clip-rule="evenodd" d="M95.8933 38.7664V39.0655C95.8933 39.8693 94.8229 40.4114 93.9211 40.4114C92.8332 40.4114 92.0065 40.2664 91.1642 39.5991C90.958 39.4357 90.7716 39.3076 90.6153 39.1154C89.9687 38.3215 89.8813 38.3384 89.3355 37.3213C89.2659 37.1915 89.2381 37.1179 89.1723 36.9753C89.0381 36.685 88.8474 36.7728 88.1094 36.7728L88.2136 39.118C88.2486 39.5151 88.1787 39.9501 88.2114 40.2133C88.3637 41.4288 87.9917 41.2586 89.0693 41.2586C89.4962 41.2586 89.3249 40.9978 89.7091 40.4613C90.2936 40.7504 90.8731 41.008 91.6064 41.1796C92.1045 41.296 93.4093 41.5078 93.9211 41.5078C94.3152 41.5078 96.118 41.2085 96.4913 41.1198C98.0004 40.7618 99.196 39.8745 99.573 38.4183C99.7827 37.6081 99.7577 36.7637 99.4591 36.0311C98.6149 33.9614 95.6618 33.7104 93.7148 33.0277C91.4086 32.2187 92.3127 30.1433 93.814 30.1433C94.9122 30.1433 95.0133 30.0646 96.001 30.5413C96.447 30.7566 96.4626 30.8375 96.7469 31.0402C96.9544 31.1881 97.2097 31.4989 97.3719 31.7019C98.32 32.8894 97.7548 33.1339 98.7725 33.1339C98.9351 33.1339 98.9875 33.0861 99.0924 33.0341C99.0874 32.8182 99.0449 32.8305 99.0374 32.5872C99.0318 32.4068 99.0465 32.216 99.0409 32.0357C99.0334 31.7973 98.9978 31.8079 98.9857 31.589C98.9416 30.8191 98.9507 29.8008 98.8792 28.9967C97.8971 28.9967 97.8104 28.8491 97.5997 29.6946C97.1582 29.5983 96.7687 29.3842 95.8715 29.2167C94.6682 28.9923 93.706 28.9194 92.5199 29.1324C92.131 29.2024 91.6804 29.287 91.3546 29.3891C90.4443 29.6739 89.7649 30.0608 89.1976 30.7616C88.628 31.4659 88.354 32.4985 88.531 33.3379C88.9557 35.3499 90.2333 35.976 92.3142 36.6298C93.5971 37.033 95.8933 37.2259 95.8933 38.7664Z" fill="#F4F4F6"/>
<path fill-rule="evenodd" clip-rule="evenodd" d="M73.5528 11.9002C73.5528 11.584 73.5525 11.268 73.5541 10.952C73.555 10.781 73.5575 10.6874 73.5257 10.5298C73.4707 10.2591 73.4458 10.3405 73.393 10.1555L71.0469 10.2054C70.7795 10.2185 70.6409 10.2553 70.2992 10.2538C69.9681 10.2526 69.8869 10.3078 69.5558 10.3063L68.0226 10.3688C67.788 10.3985 67.5732 10.4049 67.2618 10.4049C67.0976 10.7241 67.2084 10.8365 67.2084 11.3517C67.8862 11.3517 68.4651 11.4206 68.8312 11.9279C69.3686 12.6728 69.4507 14.2556 69.333 15.2325C69.255 15.8834 69.2753 17.7731 69.3383 18.4824C69.3726 18.8728 69.314 20.1148 69.1767 20.4693C68.9648 21.0155 67.9646 21.0604 67.4216 21.0715C67.3348 22.0472 66.9887 22.0682 68.1681 22.0688C68.599 22.0688 68.8655 22.0177 69.2325 22.0168L75.8453 22.0189C75.9514 21.812 75.952 21.6177 75.952 21.3706C75.952 20.7503 74.9565 21.2676 73.9261 20.673C73.7806 20.5889 73.5528 20.3407 73.5528 20.1247V13.1962C73.5528 13.0016 74.264 12.5042 74.4475 12.3878C74.7418 12.2019 75.2811 11.9595 75.7389 11.9498C75.713 12.2395 75.5117 12.7035 75.5376 12.9844C75.6016 13.6791 75.9898 14.2195 76.6445 14.4928C77.3039 14.768 78.0229 14.8138 78.6714 14.5424C80.3787 13.8279 80.2258 11.4553 79.1389 10.5155C78.0376 9.56349 76.1667 10.0076 75.0455 10.7037C73.9058 11.4112 73.7391 11.7724 73.5528 11.9002Z" fill="#F4F4F6"/>
<path fill-rule="evenodd" clip-rule="evenodd" d="M38.2083 48.8354C38.2217 48.686 38.2748 48.5425 38.3019 48.4246L38.4857 47.5995C38.5154 47.4516 38.4998 47.2903 38.6883 47.2903H40.874C41.6564 47.2903 41.5671 47.8032 41.5671 48.038C41.5671 48.5162 40.9092 48.8334 40.3432 48.8378C39.6332 48.843 38.9189 48.8354 38.2083 48.8354ZM40.7673 46.5923H38.7413C38.7466 46.3808 38.8231 46.1375 38.8702 45.9155C38.9183 45.689 39.0031 45.4562 39.0081 45.2467H41.354C42.1747 45.2467 42.1192 46.5923 40.7673 46.5923ZM37.1953 49.5333C38.3444 49.5333 39.6538 49.6182 40.7123 49.4817C42.4911 49.2523 43.0086 47.4463 41.887 46.8914C42.1903 46.5045 42.7402 46.5381 42.7402 45.3462C42.7402 44.5844 41.5409 44.5485 40.9807 44.5488C40.092 44.5491 39.2035 44.5488 38.315 44.5488C38.2726 45.0259 37.2459 48.9661 37.1953 49.5333Z" fill="#F4F4F6"/>
<path fill-rule="evenodd" clip-rule="evenodd" d="M78.6701 46.0441V46.2933C78.6701 47.6748 81.8448 47.1254 82.0548 47.916C82.1394 48.2335 81.8648 48.5468 81.6476 48.6781C81.3077 48.8835 81.1457 48.8867 80.6589 48.9506C79.9412 49.0455 78.99 48.8593 78.99 48.1375V47.8387H78.0834C78.0834 48.2238 78.0041 48.5226 78.188 48.8876C78.554 49.6144 79.7393 49.7127 80.5406 49.638C81.7415 49.5263 82.9885 49.0142 82.9885 47.7389C82.9885 46.185 79.5764 47.0521 79.5764 45.8947C79.5764 45.0594 81.929 44.7717 82.3154 45.5767C82.3897 45.7307 82.4021 45.8358 82.4021 46.0441C83.3677 46.0441 83.255 46.1325 83.255 45.6452C83.255 43.6516 78.6701 44.2389 78.6701 46.0441Z" fill="#F4F4F6"/>
<path fill-rule="evenodd" clip-rule="evenodd" d="M31.5416 48.8854C30.2418 48.8854 30.0471 47.6393 30.8332 46.8772C31.8053 45.9348 33.9329 46.3607 33.125 47.9733L32.7636 48.4328C32.508 48.6584 32.0246 48.8854 31.5416 48.8854ZM31.4398 50.7795H30.5816C29.4073 50.7795 29.0122 49.6332 29.4622 49.6332C30.8204 49.6332 29.9444 49.7172 30.42 50.0338C30.7058 50.224 31.1746 50.1814 31.5416 50.1814C32.3202 50.1814 32.8597 49.6025 32.8744 48.9852C32.47 49.2381 31.8923 49.5334 31.2217 49.5334C30.5907 49.5334 29.8729 49.2282 29.6417 48.6677C29.5752 48.5072 29.5156 48.2388 29.5156 48.0381C29.5156 46.4223 31.6174 45.2561 33.0186 45.9094C33.3163 46.0483 33.2976 46.1081 33.5141 46.2435C33.7441 45.7956 33.2916 45.795 34.3673 45.795C34.3673 46.1183 34.2762 46.3596 34.22 46.6047C34.1558 46.8853 34.1136 47.1304 34.0475 47.3901C33.8215 48.2759 33.6742 49.7443 33.0439 50.24C32.5068 50.6625 32.0003 50.7605 31.4398 50.7795Z" fill="#F4F4F6"/>
<path fill-rule="evenodd" clip-rule="evenodd" d="M72.5413 48.9851C70.6056 48.9851 71.3093 46.3931 73.0213 46.3931C73.7443 46.3931 74.3008 46.5751 74.3008 47.39C74.3008 48.2627 73.4807 48.9851 72.5413 48.9851ZM74.5139 46.2933C74.3392 46.1839 73.9369 45.7451 73.3945 45.7451C72.6683 45.7451 72.2523 45.7553 71.6032 46.2142C71.5109 46.2793 71.3171 46.4208 71.254 46.4856C69.5779 48.204 70.9832 50.2864 73.1907 49.4426C73.4501 49.3437 73.6386 49.2013 73.8742 49.0849C73.838 49.2296 73.8036 49.3886 73.7674 49.5333H74.5673C74.611 49.3574 75.687 44.8196 75.687 44.5488H74.8872L74.7049 45.425C74.6413 45.6925 74.5373 46.0339 74.5139 46.2933Z" fill="#F4F4F6"/>
<path fill-rule="evenodd" clip-rule="evenodd" d="M19.2265 48.9851C18.6245 48.9851 18.0537 48.6531 18.0537 48.1874V47.7889C18.0537 47.1347 18.8879 46.3931 19.6 46.3931C19.986 46.3931 20.3178 46.3627 20.6286 46.6274C21.3732 47.2608 20.7362 48.9851 19.2265 48.9851ZM21.146 46.2434C20.3977 45.7751 20.5322 45.7451 19.6 45.7451C17.8705 45.7451 16.5345 47.9239 17.4573 48.9941C18.2874 49.9572 19.5254 49.6987 20.5063 49.0849C20.4891 49.2771 20.4529 49.2809 20.4529 49.5333C21.4475 49.5333 21.1616 49.7308 21.4883 48.3581L22.0732 45.8145C22.1281 45.5916 22.1608 45.3981 22.2123 45.1968C22.2545 45.0317 22.3084 44.6734 22.3721 44.5488H21.5192C21.5192 44.7487 21.2078 46.1232 21.146 46.2434Z" fill="#F4F4F6"/>
<path fill-rule="evenodd" clip-rule="evenodd" d="M50.1483 48.985C48.2643 48.985 48.9893 46.393 50.5749 46.393H50.9481C51.3872 46.393 51.9078 46.7507 51.9078 47.1408C51.9078 47.6639 51.8712 48.1663 51.361 48.5734C51.0951 48.7855 50.6242 48.985 50.1483 48.985ZM52.1743 46.2433C51.6946 46.1237 51.9312 45.745 50.5749 45.745C49.9551 45.745 49.2845 46.1269 48.9612 46.4298C47.0738 48.1987 48.7896 50.77 51.4812 49.0848C51.4759 49.3101 51.4281 49.2829 51.4281 49.5332H52.2276L53.0584 45.8238C53.166 45.371 53.2415 44.9736 53.3473 44.5488C53.2369 44.5488 52.672 44.5368 52.6109 44.5581C52.4342 44.6199 52.5191 44.5648 52.4748 44.7798L52.1743 46.2433Z" fill="#F4F4F6"/>
<path fill-rule="evenodd" clip-rule="evenodd" d="M62.249 48.9851C61.7597 48.9851 61.236 49.0738 61.236 48.5364C61.236 47.9348 62.2655 47.9964 63.026 47.8674C63.2707 47.826 63.5185 47.7562 63.7416 47.739C63.7416 48.4614 63.0217 48.9851 62.249 48.9851ZM60.8628 47.091H61.6626C62.0081 46.4173 62.161 46.3432 63.2086 46.3432C63.6511 46.3432 63.9551 46.4491 63.9551 46.792C63.9551 47.7396 60.3828 46.9551 60.3828 48.5863V48.8854C60.3828 49.6495 61.9706 49.9054 63.1 49.2825C63.2295 49.2113 63.3091 49.1261 63.4751 49.0849C63.6752 49.4747 63.6464 49.5833 64.2746 49.5833C64.7374 49.5833 64.7546 49.4047 64.7546 48.9852C64.1167 48.9852 64.3096 48.8547 64.5458 47.7431C64.9116 46.0205 64.9774 45.7451 62.7286 45.7451C61.891 45.7451 61.06 46.2995 60.8628 47.091Z" fill="#F4F4F6"/>
<path fill-rule="evenodd" clip-rule="evenodd" d="M9.41835 46.3432C9.7273 46.3432 9.97665 46.4042 10.1995 46.56C10.4566 46.74 10.5381 46.9982 10.5381 47.2903H7.81899C8.10953 46.7774 8.57982 46.3432 9.41835 46.3432ZM6.85938 47.9882V48.2374C6.85938 49.9877 9.62806 49.9623 10.6832 48.8714C10.8598 48.6884 11.023 48.5315 11.0714 48.3369H10.2185C9.65021 49.3408 7.65921 49.1132 7.65921 48.2374V47.9383H11.1247C11.4459 47.9383 11.3772 46.9244 11.1956 46.5262C11.0062 46.111 10.46 45.7451 9.84495 45.7451C8.95461 45.7451 8.39133 45.8175 7.64548 46.4302C7.25851 46.7479 6.85938 47.4584 6.85938 47.9882Z" fill="#F4F4F6"/>
<path fill-rule="evenodd" clip-rule="evenodd" d="M14.4796 46.3432C15.1821 46.3432 15.706 46.6119 15.706 47.2903H12.987C13.153 46.9971 13.2397 46.8503 13.5337 46.6548C13.7752 46.4944 14.0873 46.3432 14.4796 46.3432ZM12.0273 47.9383C12.0273 48.4413 12.0208 48.9286 12.5585 49.2857C13.3393 49.8047 14.5579 49.7055 15.345 49.2454C15.6024 49.0949 16.1601 48.614 16.239 48.3369H15.3862C14.9137 48.9968 14.4855 48.9851 13.7868 48.9851C13.1639 48.9851 12.7876 48.521 12.7738 47.9383H16.2924C16.6535 47.9383 16.7849 45.7451 15.0129 45.7451C14.1357 45.7451 13.5125 45.8043 12.8125 46.4293C12.4674 46.7371 12.0273 47.3352 12.0273 47.9383Z" fill="#F4F4F6"/>
<path fill-rule="evenodd" clip-rule="evenodd" d="M2.11329 49.5333H2.96649C3.03577 49.3979 3.44645 47.61 3.44645 47.39H6.21857C6.4598 47.39 6.44544 47.0157 6.53844 46.6422H3.6596C3.66709 46.3201 3.9261 45.6534 3.9261 45.2966H7.12482C7.32267 45.2966 7.27836 45.1659 7.31986 44.9804C7.35981 44.8047 7.39164 44.7472 7.39164 44.5488H3.23299C3.23299 44.8047 3.16402 44.9415 3.11284 45.184L2.11329 49.5333Z" fill="#F4F4F6"/>
<path fill-rule="evenodd" clip-rule="evenodd" d="M85.8159 48.9851C85.321 48.9851 85.0257 49.0385 84.6653 48.715C83.9884 48.1069 84.5186 46.3432 86.2425 46.3432C86.8345 46.3432 87.3622 46.6998 87.3622 47.2404C87.3622 47.7635 87.2986 48.1005 86.871 48.5259C86.6732 48.7229 86.2023 48.9851 85.8159 48.9851ZM83.5234 48.0877C83.5234 50.102 86.846 50.0822 87.894 48.3859C88.6339 47.1882 88.085 45.7451 86.5624 45.7451C85.6577 45.7451 85.0173 45.8175 84.3092 46.4795C83.8517 46.9072 83.5234 47.4222 83.5234 48.0877Z" fill="#F4F4F6"/>
<path fill-rule="evenodd" clip-rule="evenodd" d="M45.3472 48.9851C44.4437 48.9851 43.9079 48.9131 43.9079 47.8884C43.9079 46.1728 46.8935 45.7393 46.8935 47.3402C46.8935 47.9511 46.4793 48.5498 45.9891 48.7873C45.8134 48.8725 45.6105 48.9851 45.3472 48.9851ZM43.0547 47.9383C43.0547 48.4798 43.0775 48.8862 43.6545 49.272C45.1003 50.2397 47.7467 49.199 47.7467 47.2404C47.7467 46.4001 46.9846 45.7451 46.0936 45.7451C45.0672 45.7451 44.7127 45.8081 43.877 46.4138C43.5053 46.6828 43.0547 47.3449 43.0547 47.9383Z" fill="#F4F4F6"/>
<path fill-rule="evenodd" clip-rule="evenodd" d="M53.2395 50.0814C53.2183 50.318 53.1328 50.4581 53.1328 50.7294C53.6393 50.7294 54.4632 51.018 55.2234 49.9428C55.5585 49.4687 55.8634 49.0433 56.2036 48.566C56.8624 47.6423 57.4934 46.7533 58.1443 45.8447H57.1844C57.1429 46.0119 57.073 46.0735 56.9819 46.2033C56.888 46.3375 56.8352 46.4312 56.7366 46.5721L55.2655 48.7355L54.7902 46.5876C54.7384 46.3454 54.6473 46.0886 54.6254 45.8447H53.6658L54.5509 49.1046C54.6251 49.3792 54.8314 49.8591 54.0487 50.0919C53.8003 50.1654 53.5535 50.0814 53.2395 50.0814Z" fill="#F4F4F6"/>
<path fill-rule="evenodd" clip-rule="evenodd" d="M88.6953 48.636C88.6953 49.7144 90.3602 49.9002 91.3516 49.275C91.5011 49.1808 91.5174 49.1253 91.6809 49.0848C91.6662 49.2493 91.6116 49.3835 91.5742 49.5332H92.4274C92.4274 49.2686 92.9192 47.2181 93.0244 46.8017C93.0743 46.6045 93.2219 46.0516 93.2272 45.8447H92.4274C92.256 46.5324 92.1019 47.2362 91.9443 47.9349C91.6781 49.1154 89.6019 49.3056 89.6019 48.4864C89.6019 48.0855 89.6156 48.0505 89.7083 47.689L90.1349 45.8447H89.2817C89.2817 46.2246 88.6953 48.2562 88.6953 48.636Z" fill="#F4F4F6"/>
<path fill-rule="evenodd" clip-rule="evenodd" d="M66.835 46.2933C66.8709 46.1486 66.9056 45.9896 66.9415 45.8449H66.1419L65.2891 49.5334C66.2896 49.5334 66.1092 49.5564 66.1613 49.3023C66.176 49.2311 66.19 49.124 66.2178 49.0062C66.3479 48.4521 66.5158 47.2098 66.9 46.8524C67.5775 46.2216 68.9677 46.2192 68.9677 46.8915L68.5517 48.8454C68.4912 49.0844 68.4344 49.2498 68.4344 49.5334H69.2339C69.2464 49.0193 69.8206 47.2588 69.8206 46.6423C69.8206 45.7988 68.8176 45.7451 68.2213 45.7451C67.6477 45.7451 67.1836 46.0751 66.835 46.2933Z" fill="#F4F4F6"/>
<path fill-rule="evenodd" clip-rule="evenodd" d="M25.8887 46.2429C25.8887 46.0052 25.9246 46.0364 25.9421 45.8444H25.1423C24.8392 47.0602 24.5918 48.3188 24.2891 49.5329H25.0889L25.5473 47.6189C25.6216 47.3111 25.7046 47.0167 25.9558 46.8043C26.4408 46.3941 27.4775 46.2085 27.8345 46.5671C28.0729 46.8069 27.934 47.2548 27.8613 47.539L27.4347 49.5329H28.2346L28.5853 47.9667C28.7966 46.9575 29.3586 45.7449 27.3804 45.7432C26.4427 45.7423 26.2345 46.1569 25.8887 46.2429Z" fill="#F4F4F6"/>
<path fill-rule="evenodd" clip-rule="evenodd" d="M93.5469 49.5333H94.3467C94.5499 48.7184 94.7121 47.9047 94.9106 47.07C95.0142 46.6358 95.1013 46.2308 95.1862 45.832L95.4664 44.5488H94.6666L93.5469 49.5333Z" fill="#F4F4F6"/>
<path fill-rule="evenodd" clip-rule="evenodd" d="M22.3711 49.5332H23.1709C23.4331 48.4811 23.6699 47.1742 23.9402 46.1615C24.0544 45.7335 24.0862 45.7948 23.3307 45.7948C23.1247 45.7948 23.0857 46.2677 23.0058 46.6374L22.3711 49.5332Z" fill="#F4F4F6"/>
<path fill-rule="evenodd" clip-rule="evenodd" d="M9.73569 23.8378L9.69887 41.1677C8.04614 41.1706 6.49828 41.2161 4.83058 41.2161C3.16725 41.2161 1.61969 41.1738 -0.0414619 41.1674L-0.035221 23.3319L8.34948 23.3182C8.20655 23.2272 7.56119 23.2648 7.3365 23.2648H2.0051C1.263 23.2645 0.69004 23.3144 -0.0742188 23.3144V41.2091C1.131 41.2091 2.20639 41.2587 3.44468 41.2587L7.87015 41.2596C8.24401 41.2616 8.37788 41.2077 8.72085 41.2071C9.76566 41.2059 9.78001 41.3077 9.79562 40.9661C9.80186 40.8339 9.78907 40.6507 9.78907 40.5112V30.4921C9.78907 28.216 9.73569 26.0873 9.73569 23.8378Z" fill="#F4F4F6"/>
<path fill-rule="evenodd" clip-rule="evenodd" d="M23.332 45.3462H24.1319C24.1568 45.0658 24.2854 44.8237 24.2916 44.5488H23.4921C23.4372 44.7697 23.332 45.1006 23.332 45.3462Z" fill="#F4F4F6"/>
</g>
<defs>
<clipPath id="clip0_413_2688">
<rect width="115" height="56" fill="white"/>
</clipPath>
</defs>
</svg>
