<svg width="326" height="131" viewBox="0 0 326 131" fill="none" xmlns="http://www.w3.org/2000/svg">
<path d="M120.679 11.2673C128.769 0.480222 103.322 1.99404 98.8948 2.16937C72.5872 3.21126 47.0256 12.9245 26.2397 29.2068C10.686 41.3905 -1.23947 65.1323 2.79012 85.0116C9.45975 117.915 57.1284 123.419 83.1336 126.337C133.192 131.953 182.279 128.234 231.84 120.186C248.722 117.444 265.554 113.161 281.878 108.077C294.235 104.228 307.404 99.7594 317.116 90.8419C324.642 83.932 325.56 77.1249 321.217 67.6487C312.775 49.2306 286.72 42.9622 269.192 37.7281C239.384 28.827 206.67 27.0035 175.843 24.8501C145.025 22.6973 115.591 24.3465 84.9276 27.4129" stroke="#C01F2F" stroke-width="3" stroke-linecap="round"/>
</svg>
