<svg width="50" height="50" viewBox="0 0 50 50" fill="none" xmlns="http://www.w3.org/2000/svg">
<path d="M35.418 4.16675H14.5846C8.83167 4.16675 4.16797 8.83045 4.16797 14.5834V35.4167C4.16797 41.1697 8.83167 45.8334 14.5846 45.8334H35.418C41.1709 45.8334 45.8346 41.1697 45.8346 35.4167V14.5834C45.8346 8.83045 41.1709 4.16675 35.418 4.16675Z" stroke="#1F1F26" stroke-width="2.5" stroke-linecap="round" stroke-linejoin="round"/>
<path d="M33.3344 23.6881C33.5915 25.422 33.2953 27.1927 32.488 28.7486C31.6807 30.3044 30.4034 31.5661 28.8377 32.3541C27.2721 33.1422 25.4978 33.4165 23.7672 33.138C22.0367 32.8595 20.438 32.0425 19.1986 30.803C17.9592 29.5636 17.1421 27.965 16.8637 26.2344C16.5852 24.5039 16.8595 22.7296 17.6475 21.1639C18.4356 19.5982 19.6972 18.3209 21.2531 17.5136C22.8089 16.7063 24.5797 16.4102 26.3135 16.6673C28.0821 16.9296 29.7195 17.7537 30.9837 19.0179C32.248 20.2822 33.0721 21.9195 33.3344 23.6881Z" stroke="#1F1F26" stroke-width="2.5" stroke-linecap="round" stroke-linejoin="round"/>
<path d="M36.457 13.5417H36.4779" stroke="#1F1F26" stroke-width="2.5" stroke-linecap="round" stroke-linejoin="round"/>
</svg>
