<svg width="24" height="31" viewBox="0 0 24 31" fill="none" xmlns="http://www.w3.org/2000/svg">
<path d="M21 16C21 23 12 29 12 29C12 29 3 23 3 16C3 13.6131 3.94821 11.3239 5.63604 9.63604C7.32387 7.94821 9.61305 7 12 7C14.3869 7 16.6761 7.94821 18.364 9.63604C20.0518 11.3239 21 13.6131 21 16Z" stroke="#1F1F26" stroke-width="2" stroke-linecap="round" stroke-linejoin="round"/>
<path d="M12 19C13.6569 19 15 17.6569 15 16C15 14.3431 13.6569 13 12 13C10.3431 13 9 14.3431 9 16C9 17.6569 10.3431 19 12 19Z" stroke="#1F1F26" stroke-width="2" stroke-linecap="round" stroke-linejoin="round"/>
</svg>
