<svg width="26" height="28" viewBox="0 0 26 28" fill="none" xmlns="http://www.w3.org/2000/svg">
<path fill-rule="evenodd" clip-rule="evenodd" d="M4.3002 24.9499C4.2002 24.9499 4.1002 24.8499 4.0002 24.8499C3.4002 24.6499 2.9002 24.3499 2.4002 23.9499C1.7002 23.1499 1.3002 22.2499 1.2002 21.1499C1.2002 20.7499 1.2002 20.3499 1.3002 19.9499C1.4002 19.4499 1.6002 19.0499 1.8002 18.6499C2.2002 17.9499 2.6002 17.4499 3.2002 16.8499C3.6002 16.4499 4.1002 16.1499 4.6002 15.8499C5.1002 15.5499 5.5002 15.2499 5.9002 14.9499C6.4002 14.5499 6.9002 14.0499 7.4002 13.5499C7.8002 13.1499 8.2002 12.7499 8.7002 12.3499C9.0002 12.0499 9.4002 11.7499 9.7002 11.5499C10.2002 11.2499 10.6002 10.9499 11.2002 10.8499C11.6002 10.7499 12.0002 10.7499 12.4002 10.8499C12.9002 10.9499 13.3002 11.0499 13.8002 11.2499C14.5002 11.5499 15.0002 11.9499 15.4002 12.5499C15.7002 12.9499 15.9002 13.3499 16.1002 13.8499C16.3002 14.3499 16.5002 14.8499 16.7002 15.3499C16.9002 15.9499 17.2002 16.4499 17.5002 16.9499C17.8002 17.4499 18.1002 17.9499 18.5002 18.4499C18.9002 19.0499 19.3002 19.6499 19.6002 20.2499C19.9002 20.8499 20.0002 21.3499 20.1002 22.0499C20.2002 22.5499 20.2002 22.9499 20.1002 23.4499C20.0002 24.1499 19.8002 24.8499 19.3002 25.4499C18.9002 25.9499 18.4002 26.3499 17.8002 26.6499C17.4002 26.8499 16.9002 26.9499 16.4002 27.0499C16.2002 27.0499 16.0002 27.0499 15.9002 27.0499H15.8002H15.7002C15.7002 27.0499 15.7002 27.0499 15.6002 27.0499L15.2002 26.9499C15.2002 26.9499 15.2002 26.9499 15.1002 26.9499H15.0002C14.6002 26.8499 14.3002 26.7499 13.9002 26.5499C13.3002 26.2499 12.7002 25.9499 12.1002 25.7499C11.6002 25.5499 11.1002 25.3499 10.6002 25.1499C10.2002 25.0499 9.9002 24.9499 9.5002 24.9499C9.2002 24.9499 8.9002 24.9499 8.6002 24.9499C8.0002 24.9499 7.5002 25.0499 6.9002 25.0499C6.3002 25.1499 5.7002 25.1499 5.1002 25.1499C4.8002 25.1499 4.6002 25.1499 4.4002 25.0499C4.3002 25.0499 4.3002 25.0499 4.3002 25.0499C4.5002 24.9499 4.4002 24.9499 4.3002 24.9499Z" fill="white"/>
<path fill-rule="evenodd" clip-rule="evenodd" d="M19.1 2.65005C19.9 2.85005 20.4 3.45005 20.8 4.15005C21 4.65005 21.2 5.15005 21.2 5.75005C21.2 6.25005 21.2 6.65005 21.1 7.15005C20.9 8.05005 20.6 8.75005 20.1 9.45005C19.7 9.95005 19.3 10.35 18.8 10.75C18.4 11.05 17.9 11.25 17.3 11.35C16.9 11.45 16.5 11.45 16.2 11.35C15.6 11.15 15.1 10.85 14.7 10.35C14.4 9.85005 14.2 9.35005 14.1 8.85005C14 8.35005 14 7.95005 14 7.55005C14 7.25005 14.1 7.05005 14.1 6.75005C14.2 6.15005 14.4 5.55005 14.7 5.05005C15 4.45005 15.4 3.95005 15.9 3.55005C16.3 3.15005 16.8 2.85005 17.3 2.75005C17.7 2.65005 18.1 2.55005 18.5 2.55005C18.8 2.55005 18.9 2.55005 19.1 2.65005Z" fill="white"/>
<path fill-rule="evenodd" clip-rule="evenodd" d="M0.0999999 8.9499C0.2 8.7499 0.2 8.4499 0.4 8.2499C0.6 7.8499 0.9 7.4499 1.3 7.1499C1.7 6.8499 2.2 6.6499 2.7 6.6499C3.1 6.6499 3.6 6.7499 4 6.9499C4.4 7.1499 4.8 7.5499 5.1 7.8499C5.6 8.4499 5.9 9.1499 6.1 9.9499C6.2 10.3499 6.2 10.7499 6.2 11.1499C6.2 11.3499 6.2 11.5499 6.1 11.7499C6 12.0499 5.9 12.4499 5.8 12.7499C5.6 13.2499 5.3 13.6499 4.9 13.9499C4.5 14.3499 3.9 14.4499 3.4 14.4499C3 14.4499 2.6 14.3499 2.2 14.1499C1.7 13.8499 1.3 13.5499 1 13.0499C0.7 12.6499 0.4 12.1499 0.3 11.5499C-5.96046e-08 11.0499 0 10.5499 0 9.9499C0 9.8499 0 9.7499 0 9.6499V9.5499C0 9.5499 0 9.5499 0 9.4499C0 9.4499 0 9.4499 0 9.3499V9.1499C0 9.1499 0.0999999 9.0499 0.0999999 8.9499Z" fill="white"/>
<path fill-rule="evenodd" clip-rule="evenodd" d="M6.2998 4.44995C6.3998 3.74995 6.5998 3.14995 6.9998 2.64995C7.2998 2.24995 7.5998 1.84995 7.8998 1.54995C8.2998 1.24995 8.7998 1.04995 9.2998 0.949951C9.7998 0.949951 10.2998 1.04995 10.7998 1.24995C11.1998 1.44995 11.4998 1.74995 11.7998 2.14995C12.1998 2.74995 12.4998 3.44995 12.6998 4.14995C12.7998 4.64995 12.7998 5.04995 12.7998 5.54995C12.7998 5.84995 12.7998 6.04995 12.6998 6.34995C12.5998 6.64995 12.5998 7.04995 12.4998 7.34995C12.2998 8.04995 11.8998 8.64995 11.3998 9.04995C11.0998 9.34995 10.6998 9.54995 10.2998 9.74995C9.7998 9.94995 9.3998 9.94995 8.8998 9.84995C8.4998 9.74995 8.0998 9.54995 7.7998 9.24995C7.3998 8.84995 6.9998 8.44995 6.7998 7.84995C6.4998 7.24995 6.2998 6.54995 6.2998 5.94995C6.2998 5.54995 6.2998 5.24995 6.2998 4.84995C6.2998 4.74995 6.2998 4.54995 6.2998 4.44995Z" fill="white"/>
<path fill-rule="evenodd" clip-rule="evenodd" d="M25.4 13.8499C25.2 14.5499 25 15.1499 24.6 15.7499C24.3 16.1499 23.9 16.5499 23.5 16.8499C23 17.2499 22.4 17.5499 21.7 17.6499C21.3 17.7499 20.9 17.7499 20.5 17.6499C19.9 17.5499 19.4 17.2499 19.1 16.7499C18.8 16.3499 18.6 15.9499 18.6 15.4499C18.5 15.0499 18.6 14.5499 18.7 14.1499C18.9 13.2499 19.3 12.3499 20 11.7499C20.2 11.5499 20.5 11.3499 20.7 11.1499C21.2 10.7499 21.8 10.5499 22.5 10.4499C22.9 10.3499 23.3 10.4499 23.6 10.5499C24.2 10.6499 24.6 10.9499 25 11.4499C25.3 11.8499 25.5 12.3499 25.5 12.8499C25.5 13.1499 25.5 13.4499 25.5 13.7499V13.8499C25.5 13.6499 25.4 13.7499 25.4 13.8499Z" fill="white"/>
</svg>
